<?xml version="1.0" standalone="no"?>
<!DOCTYPE svg PUBLIC "-//W3C//DTD SVG 1.1//EN" "http://www.w3.org/Graphics/SVG/1.1/DTD/svg11.dtd" >
<svg xmlns="http://www.w3.org/2000/svg" xmlns:xlink="http://www.w3.org/1999/xlink" version="1.1">
<metadata>
Created by FontForge 20160407 at Fri Jul  1 09:15:53 2016
 By Jimmy Warting
Copyright (c) 2015 by Ian Brignell. All rights reserved.
</metadata>
<defs>
<font id="BudBold_VN" horiz-adv-x="473" >
  <font-face 
    font-family="Bud Bold_VN"
    font-weight="700"
    font-stretch="normal"
    units-per-em="1000"
    panose-1="2 0 5 6 0 0 0 2 0 4"
    ascent="800"
    descent="-200"
    x-height="529"
    cap-height="750"
    bbox="-181 -237 1094 1025"
    underline-thickness="53"
    underline-position="-105"
    unicode-range="U+000D-FB02"
  />
<missing-glyph horiz-adv-x="282" 
 />
    <glyph glyph-name="_16" horiz-adv-x="748" arabic-form="final" 
d="M484 909h161l50 -145h-111zM367 750l153 -750h-173l-26 133h-168l-26 -133h-121l153 750h208zM298 883l60 -83h-58l-40 49l-38 -49h-58l60 83h74zM172 233h130l-64 336z" />
    <glyph glyph-name=".notdef" horiz-adv-x="282" 
 />
    <glyph glyph-name="NULL" horiz-adv-x="0" 
 />
    <glyph glyph-name="nonmarkingreturn" unicode="&#xd;" horiz-adv-x="205" 
 />
    <glyph glyph-name="space" unicode=" " horiz-adv-x="205" 
 />
    <glyph glyph-name="B" unicode="B" horiz-adv-x="569" 
d="M427 395q54 -22 84.5 -65.5t30.5 -112.5q0 -114 -58 -165.5t-159 -51.5h-270v750h255q108 0 163 -48.5t55 -147.5q0 -61 -25.5 -98.5t-75.5 -60.5zM276 103q30 0 48.5 9t29 24.5t14.5 36t4 44.5q0 27 -4 49.5t-14 38t-28.5 24t-46.5 8.5h-59v-234h56zM220 430h47
q29 0 47 8t28 22.5t13.5 35t3.5 46.5q0 24 -3.5 44t-14 34t-29 22t-48.5 8h-44v-220z" />
    <glyph glyph-name="C" unicode="C" horiz-adv-x="528" 
d="M509 249v-8q0 -4 0.5 -8t0.5 -9q0 -51 -10.5 -94.5t-36.5 -75.5t-69.5 -50.5t-109.5 -18.5q-65 0 -111.5 16.5t-76 47t-43 74t-13.5 97.5v303q0 55 14 100t43.5 76.5t75 48.5t109.5 17q65 0 108 -16.5t68.5 -47.5t35.5 -75.5t10 -100.5q0 -6 -0.5 -13t-0.5 -13v-13h-152
v14q0 6 0.5 13.5t0.5 15.5q0 66 -17 98t-55 32q-33 0 -50.5 -24.5t-17.5 -69.5v-375q0 -56 21 -77.5t50 -21.5q35 0 54.5 26.5t19.5 91.5q0 7 -0.5 14t-0.5 13v13h153z" />
    <glyph glyph-name="D" unicode="D" horiz-adv-x="577" 
d="M55 0v750h233q132 0 190.5 -60.5t58.5 -178.5v-271q0 -116 -58.5 -178t-190.5 -62h-233zM276 107q50 0 70.5 28t20.5 75v335q0 50 -20.5 76.5t-70.5 26.5h-53v-541h53z" />
    <glyph glyph-name="E" unicode="E" horiz-adv-x="463" 
d="M446 106v-106h-391v750h382v-106h-212v-191h176v-106h-176v-241h221z" />
    <glyph glyph-name="F" unicode="F" horiz-adv-x="446" 
d="M55 750h378v-108h-208v-210h185v-108h-185v-324h-170v750z" />
    <glyph glyph-name="G" unicode="G" horiz-adv-x="573" 
d="M297 392h231v-392h-46l-54 34q-64 -49 -154 -49q-122 0 -178 65.5t-56 178.5v292q0 55 15 100.5t45.5 77t77 49t110.5 17.5q67 0 113 -18t73.5 -53t39 -85.5t10.5 -116.5h-161q5 91 -14.5 129t-61.5 38q-75 0 -75 -96v-365q0 -46 19 -74.5t65 -28.5q24 0 42 6.5t31 15.5
v171h-72v104z" />
    <glyph glyph-name="H" unicode="H" horiz-adv-x="601" 
d="M55 750h168v-309h155v309h168v-750h-168v332h-155v-332h-168v750z" />
    <glyph glyph-name="I" unicode="I" horiz-adv-x="280" 
d="M55 750h170v-750h-170v750z" />
    <glyph glyph-name="J" unicode="J" horiz-adv-x="338" 
d="M14 102q5 -1 14 -1.5t17 -0.5q44 0 58.5 21t14.5 58v571h170v-540q0 -53 -9.5 -94t-33 -68.5t-64.5 -41.5t-104 -14q-20 0 -36 1t-27 3v106z" />
    <glyph glyph-name="K" unicode="K" horiz-adv-x="556" 
d="M419 750h132l-159 -230l167 -520h-181l-105 347l-51 -74v-273h-167v750h167v-311z" />
    <glyph glyph-name="L" unicode="L" horiz-adv-x="425" 
d="M55 750h170v-638h188v-112h-358v750z" />
    <glyph glyph-name="M" unicode="M" horiz-adv-x="749" 
d="M694 0h-141v547l-116 -547h-129l-116 537v-537h-137v750h217l106 -490l105 490h211v-750z" />
    <glyph glyph-name="N" unicode="N" horiz-adv-x="595" 
d="M540 0h-155l-214 550v-550h-116v750h205l165 -422v422h115v-750z" />
    <glyph glyph-name="O" unicode="O" horiz-adv-x="579" 
d="M40 539q0 106 61.5 166t188.5 60t188 -59.5t61 -166.5v-316q0 -112 -61 -175t-188 -63q-128 0 -189 63t-61 175v316zM367 558q0 47 -19.5 74t-57.5 27q-39 0 -58.5 -27t-19.5 -74v-364q0 -103 78 -103q77 0 77 103v364z" />
    <glyph glyph-name="P" unicode="P" horiz-adv-x="527" 
d="M223 300v-300h-168v750h258q102 0 157 -56t55 -164q0 -34 -9 -74.5t-35.5 -75t-75.5 -57.5t-129 -23h-53zM223 647v-244h37q28 0 46.5 10.5t29.5 28t15.5 40.5t4.5 48q0 52 -20.5 84.5t-75.5 32.5h-37z" />
    <glyph glyph-name="Q" unicode="Q" horiz-adv-x="579" 
d="M40 539q0 106 61.5 166t188.5 60t188 -59.5t61 -166.5v-316q0 -81 -31.5 -136.5t-97.5 -81.5l122 -39l-98 -79l-263 115q-68 29 -99.5 84t-31.5 137v316zM367 558q0 47 -19.5 74t-57.5 27q-39 0 -58.5 -27t-19.5 -74v-364q0 -103 78 -103q77 0 77 103v364z" />
    <glyph glyph-name="R" unicode="R" horiz-adv-x="564" 
d="M543 0h-170l-87 320h-65v-320h-166v750h266q106 0 159.5 -52.5t53.5 -157.5q0 -66 -22.5 -111.5t-72.5 -73.5zM221 647v-228h49q29 0 48 10t30 26.5t15.5 38.5t4.5 46q0 23 -4.5 42.5t-16 34t-31 22.5t-49.5 8h-46z" />
    <glyph glyph-name="S" unicode="S" horiz-adv-x="499" 
d="M156 238q1 -80 25 -113.5t67 -33.5q37 0 57 21t20 59q0 32 -21.5 58t-54.5 51t-70.5 51t-70.5 58.5t-54.5 74t-21.5 97.5q0 96 59.5 150t162.5 54q51 0 92 -13t69 -41.5t42 -74t11 -111.5h-140q0 69 -18 101.5t-56 32.5q-29 0 -46 -18.5t-17 -51.5t22 -59.5t54.5 -51.5
t70.5 -51t70.5 -58t54.5 -73t22 -95q0 -43 -12 -82t-39.5 -69t-72.5 -47.5t-111 -17.5q-57 0 -102.5 15t-77 46.5t-47 79t-13.5 112.5h146z" />
    <glyph glyph-name="T" unicode="T" horiz-adv-x="448" 
d="M443 642h-134v-642h-170v642h-134v108h438v-108z" />
    <glyph glyph-name="U" unicode="U" horiz-adv-x="571" 
d="M220 750v-559q0 -46 21 -72.5t62 -26.5q42 0 62 26.5t20 72.5v559h136v-539q0 -112 -63 -169t-168 -57q-64 0 -109.5 17t-74.5 47t-42.5 71.5t-13.5 90.5v539h170z" />
    <glyph glyph-name="V" unicode="V" horiz-adv-x="500" 
d="M159 0l-166 750h173l109 -527l111 527h121l-166 -750h-182z" />
    <glyph glyph-name="W" unicode="W" horiz-adv-x="745" 
d="M550 284l75 466h108l-128 -750h-147l-83 462l-82 -462h-151l-130 750h154l75 -465l81 465h149z" />
    <glyph glyph-name="X" unicode="X" horiz-adv-x="522" 
d="M512 0h-189l-93 249l-93 -249h-125l156 375l-152 375h187l81 -219l81 219h119l-138 -342z" />
    <glyph glyph-name="Y" unicode="Y" horiz-adv-x="487" 
d="M180 750l93 -318l88 318h128l-158 -471v-279h-172v279l-161 471h182z" />
    <glyph glyph-name="Z" unicode="Z" horiz-adv-x="460" 
d="M445 0h-430v103l247 539h-236v108h413v-103l-247 -540h253v-107z" />
    <glyph glyph-name="a" unicode="a" horiz-adv-x="459" 
d="M223 450q-23 0 -36 -15.5t-13 -43.5v-32h-137v21q0 37 10.5 66.5t33 50.5t57.5 32.5t84 11.5q101 0 149 -42t48 -139v-360h-130l-4 51h-3q-26 -35 -62.5 -49t-74.5 -14q-67 0 -95.5 37t-28.5 107v8q0 49 20 81.5t54 53t79.5 31t96.5 15.5v70q0 28 -12.5 43.5t-35.5 15.5z
M271 246q-52 -5 -76 -23.5t-25 -65.5v-12q0 -32 10.5 -45.5t32.5 -13.5q17 0 34 9t24 23v128z" />
    <glyph glyph-name="b" unicode="b" horiz-adv-x="492" 
d="M198 114q8 -11 22 -20.5t32 -9.5q28 0 40 19t12 53v213q0 32 -10 52.5t-40 20.5q-18 0 -33 -10.5t-23 -22.5v-295zM457 208q0 -42 -7 -81.5t-27 -70t-56.5 -49.5t-96.5 -19q-33 0 -64 10.5t-64 38.5l-44 -37h-48v750h148v-259h2q23 24 53.5 37t62.5 13q30 0 56 -8.5
t44.5 -30.5t29.5 -58.5t11 -93.5v-142z" />
    <glyph glyph-name="c" unicode="c" horiz-adv-x="459" 
d="M434 203v-42q0 -85 -47.5 -129t-147.5 -44q-111 0 -157.5 54.5t-46.5 155.5v134q0 98 48 153.5t158 55.5q53 0 89 -11.5t57.5 -35t31 -58t9.5 -80.5v-38h-137v57q0 35 -12 53.5t-39 18.5t-39.5 -18.5t-12.5 -53.5v-220q0 -32 12 -52.5t42 -20.5t42 20.5t12 52.5v48h138z
" />
    <glyph glyph-name="d" unicode="d" horiz-adv-x="492" 
d="M294 413q-9 13 -24 21t-32 8q-30 0 -40 -21.5t-10 -53.5v-208q0 -35 13 -54t41 -19q17 0 30.5 7t21.5 17v303zM35 339q0 105 41.5 153.5t115.5 48.5q32 0 57.5 -12.5t42.5 -29.5h2v251h148v-750h-49l-58 39q-27 -23 -62 -37t-84 -14q-42 0 -71.5 15t-48 41.5t-26.5 62
t-8 77.5v155z" />
    <glyph glyph-name="e" unicode="e" horiz-adv-x="468" 
d="M432 180v-21q0 -76 -45.5 -123.5t-146.5 -47.5q-56 0 -95 14.5t-63.5 41.5t-35.5 66t-11 88v134q0 100 49.5 154.5t157.5 54.5q104 0 147.5 -51t43.5 -151v-109h-247v-75q0 -73 56 -73q57 0 57 73v25h133zM296 378q0 71 -55 71t-55 -71v-64h110v64z" />
    <glyph glyph-name="f" unicode="f" horiz-adv-x="304" 
d="M10 529h57v39q0 94 46.5 140.5t134.5 46.5q15 0 27.5 -1t20.5 -3v-106q-5 2 -12 3t-18 1q-51 0 -51 -61v-59h82v-96h-82v-433h-148v433h-57v96z" />
    <glyph glyph-name="g" unicode="g" horiz-adv-x="491" 
d="M445 578l49 -74l-82 -20q34 -38 34 -99v-37q0 -70 -48 -114.5t-148 -44.5q-45 0 -79 9q-12 -12 -12 -27q0 -20 22 -28.5t81 -10.5q51 -2 91.5 -6.5t69 -18.5t43.5 -41t15 -74q0 -81 -62 -118t-177 -37q-117 0 -167 28.5t-50 81.5q0 32 20.5 55.5t55.5 37.5v2
q-29 12 -42 33t-13 47q0 36 21.5 59t51.5 39q-34 21 -50.5 53.5t-16.5 74.5v37q0 71 48 113.5t149 42.5q53 0 91 -12zM249 462q-52 0 -52 -54v-86q0 -24 12 -39.5t40 -15.5t40 15.5t12 39.5v86q0 54 -52 54zM181 23q-34 -21 -34 -53q0 -11 4 -21t14.5 -17t29.5 -11t50 -4
q59 0 80 14.5t21 41.5q0 15 -10.5 28t-41.5 16q-11 1 -25.5 2t-30 1.5t-30.5 1t-27 1.5z" />
    <glyph glyph-name="h" unicode="h" horiz-adv-x="500" 
d="M304 0v368q0 32 -8.5 52t-37.5 20q-20 0 -35 -11t-25 -25v-404h-148v750h148v-266h2q23 23 55.5 38.5t66.5 15.5q73 0 103 -40.5t30 -125.5v-372h-151z" />
    <glyph glyph-name="i" unicode="i" horiz-adv-x="249" 
d="M50 0h149v529h-149v-529zM80 619v80h85v-80h-85z" />
    <glyph glyph-name="j" unicode="j" horiz-adv-x="254" 
d="M55 750h149v-132h-149v132zM-27 -55q15 -4 30 -4q52 0 52 66v522h149v-506q0 -94 -48.5 -137.5t-136.5 -43.5q-15 0 -26.5 1t-19.5 3v99z" />
    <glyph glyph-name="k" unicode="k" horiz-adv-x="461" 
d="M226 234l-27 -35v-199h-149v750h149v-418l137 197h116l-122 -163l131 -366h-154z" />
    <glyph glyph-name="l" unicode="l" horiz-adv-x="248" 
d="M50 750h148v-750h-148v750z" />
    <glyph glyph-name="m" unicode="m" horiz-adv-x="749" 
d="M303 0v368q0 32 -9.5 52t-39.5 20q-18 0 -33 -11t-23 -25v-404h-148v529h142v-45h2q26 24 59 39t68 15q83 0 111 -61q29 29 65 45t73 16q71 0 102.5 -39.5t31.5 -126.5v-372h-148v368q0 32 -9 52t-39 20q-18 0 -34 -10.5t-25 -25.5q1 -8 1.5 -17t0.5 -18v-369h-148z" />
    <glyph glyph-name="n" unicode="n" horiz-adv-x="500" 
d="M304 0v368q0 32 -8.5 52t-38.5 20q-19 0 -34 -11t-25 -25v-404h-148v529h142v-45h2q26 25 59.5 39.5t67.5 14.5q74 0 104 -40.5t30 -128.5v-369h-151z" />
    <glyph glyph-name="o" unicode="o" horiz-adv-x="482" 
d="M241 -12q-54 0 -93 15t-64 42t-37 65t-12 84v141q0 94 49 150t157 56t157 -56t49 -150v-141q0 -46 -12 -84t-37 -65t-64 -42t-93 -15zM241 447q-27 0 -41 -18.5t-14 -53.5v-220q0 -32 12.5 -52.5t42.5 -20.5t42.5 20.5t12.5 52.5v220q0 35 -14 53.5t-41 18.5z" />
    <glyph glyph-name="p" unicode="p" horiz-adv-x="490" 
d="M198 108q9 -9 22.5 -16.5t31.5 -7.5q28 0 40 20t12 54v212q0 32 -10 52t-40 20q-18 0 -32.5 -9t-23.5 -20v-305zM198 -158h-148v687h57l61 -36q30 23 60.5 35.5t68.5 12.5q86 0 122 -49.5t36 -158.5v-131q0 -102 -37.5 -158t-125.5 -56q-27 0 -52 8t-42 22v-176z" />
    <glyph glyph-name="q" unicode="q" horiz-adv-x="490" 
d="M292 418q-8 11 -22.5 18.5t-31.5 7.5q-28 0 -40 -20t-12 -55v-210q0 -34 11.5 -54t39.5 -20q19 0 33 7t22 16v310zM292 22q-20 -15 -44.5 -24.5t-58.5 -9.5q-77 0 -115.5 49t-38.5 160v132q0 111 47.5 161.5t133.5 50.5q43 0 69 -12.5t46 -29.5l52 30h57v-687h-148v180z
" />
    <glyph glyph-name="r" unicode="r" horiz-adv-x="324" 
d="M321 408h-46q-34 0 -55.5 -23.5t-21.5 -73.5v-311h-148v529h141v-71h2q16 38 43.5 60.5t84.5 22.5v-133z" />
    <glyph glyph-name="s" unicode="s" horiz-adv-x="421" 
d="M143 182q2 -54 18.5 -78t48.5 -24q27 0 39.5 13.5t12.5 34.5t-17 36.5t-43 30.5t-56 31.5t-56 38.5t-43 52t-17 73q0 39 13.5 67t37.5 47t56.5 28t71.5 9q42 0 77 -8.5t59 -29.5t36.5 -56.5t10.5 -89.5h-121q0 51 -15.5 71t-42.5 20q-20 0 -31.5 -10.5t-11.5 -31.5
q0 -23 17.5 -40t43 -32t56 -30.5t56 -36.5t43 -49.5t17.5 -69.5q0 -78 -49.5 -119.5t-143.5 -41.5q-92 0 -145.5 47t-49.5 148h128z" />
    <glyph glyph-name="t" unicode="t" horiz-adv-x="316" 
d="M11 529h51v155h147v-155h97v-96h-97v-274q0 -29 9.5 -45.5t35.5 -16.5q18 0 31.5 3t22.5 6v-99q-15 -5 -40 -10.5t-58 -5.5q-43 0 -71.5 11.5t-45.5 33.5t-24 55t-7 77v265h-51v96z" />
    <glyph glyph-name="u" unicode="u" horiz-adv-x="500" 
d="M196 529v-377q0 -38 13.5 -51.5t33.5 -13.5t35 10.5t24 23.5v408h148v-529h-143v42h-2q-46 -54 -126 -54q-69 0 -101.5 40.5t-32.5 128.5v372h151z" />
    <glyph glyph-name="v" unicode="v" horiz-adv-x="414" 
d="M-5 529h157l78 -352h2l76 352h111l-144 -529h-137z" />
    <glyph glyph-name="w" unicode="w" horiz-adv-x="609" 
d="M2 529h153l55 -283h2l55 283h121l58 -283h2l53 283h106l-123 -529h-107l-67 306h-2l-69 -306h-110z" />
    <glyph glyph-name="x" unicode="x" horiz-adv-x="440" 
d="M437 0h-162l-77 166l-76 -166h-119l139 267l-136 262h159l70 -150l67 150h111l-124 -243z" />
    <glyph glyph-name="y" unicode="y" horiz-adv-x="437" 
d="M40 -56q10 -2 17 -2.5t17 -0.5q39 0 54 16t15 42q0 17 -3.5 33t-8.5 33l-129 464h157l81 -369h3l74 369h118l-135 -519q-21 -81 -67 -123.5t-134 -44.5q-15 0 -30 1t-29 3v98z" />
    <glyph glyph-name="z" unicode="z" horiz-adv-x="391" 
d="M15 80l203 354h-189v95h346v-93l-195 -341h199v-95h-364v80z" />
    <glyph glyph-name="Agrave" unicode="&#xc0;" horiz-adv-x="526" 
d="M367 750l153 -750h-173l-26 133h-168l-26 -133h-121l153 750h208zM172 233h130l-64 336zM246 897l58 -97h-62l-90 97h94z" />
    <glyph glyph-name="agrave" unicode="&#xe0;" horiz-adv-x="459" 
d="M223 450q-23 0 -36 -15.5t-13 -43.5v-32h-137v21q0 37 10.5 66.5t33 50.5t57.5 32.5t84 11.5q101 0 149 -42t48 -139v-360h-130l-4 51h-3q-26 -35 -62.5 -49t-74.5 -14q-67 0 -95.5 37t-28.5 107v8q0 49 20 81.5t54 53t79.5 31t96.5 15.5v70q0 28 -12.5 43.5t-35.5 15.5z
M271 246q-52 -5 -76 -23.5t-25 -65.5v-12q0 -32 10.5 -45.5t32.5 -13.5q17 0 34 9t24 23v128zM213 707l58 -97h-62l-90 97h94z" />
    <glyph glyph-name="Aacute" unicode="&#xc1;" horiz-adv-x="526" 
d="M367 750l153 -750h-173l-26 133h-168l-26 -133h-121l153 750h208zM172 233h130l-64 336zM266 800h-63l58 96h92z" />
    <glyph glyph-name="aacute" unicode="&#xe1;" horiz-adv-x="459" 
d="M223 450q-23 0 -36 -15.5t-13 -43.5v-32h-137v21q0 37 10.5 66.5t33 50.5t57.5 32.5t84 11.5q101 0 149 -42t48 -139v-360h-130l-4 51h-3q-26 -35 -62.5 -49t-74.5 -14q-67 0 -95.5 37t-28.5 107v8q0 49 20 81.5t54 53t79.5 31t96.5 15.5v70q0 28 -12.5 43.5t-35.5 15.5z
M271 246q-52 -5 -76 -23.5t-25 -65.5v-12q0 -32 10.5 -45.5t32.5 -13.5q17 0 34 9t24 23v128zM266 611h-63l58 96h92z" />
    <glyph glyph-name="Acircumflex" unicode="&#xc2;" horiz-adv-x="526" 
d="M367 750l153 -750h-173l-26 133h-168l-26 -133h-121l153 750h208zM298 883l60 -83h-58l-40 49l-38 -49h-58l60 83h74zM172 233h130l-64 336z" />
    <glyph glyph-name="acircumflex" unicode="&#xe2;" horiz-adv-x="459" 
d="M223 450q-23 0 -36 -15.5t-13 -43.5v-32h-137v21q0 37 10.5 66.5t33 50.5t57.5 32.5t84 11.5q101 0 149 -42t48 -139v-360h-130l-4 51h-3q-26 -35 -62.5 -49t-74.5 -14q-67 0 -95.5 37t-28.5 107v8q0 49 20 81.5t54 53t79.5 31t96.5 15.5v70q0 28 -12.5 43.5t-35.5 15.5z
M271 246q-52 -5 -76 -23.5t-25 -65.5v-12q0 -32 10.5 -45.5t32.5 -13.5q17 0 34 9t24 23v128zM267 694l60 -83h-58l-40 49l-38 -49h-58l60 83h74z" />
    <glyph glyph-name="Atilde" unicode="&#xc3;" horiz-adv-x="524" 
d="M367 750l153 -750h-173l-26 133h-168l-26 -133h-121l153 750h208zM146 814q13 30 31 46.5t43 16.5q12 0 23 -4t21.5 -9t20 -9t17.5 -4q10 0 18.5 5.5t15.5 22.5l39 -12q-11 -29 -28.5 -47t-46.5 -18q-12 0 -23 4t-21.5 8.5t-20.5 8.5t-19 4q-20 0 -32 -25zM172 233h130
l-64 336z" />
    <glyph glyph-name="atilde" unicode="&#xe3;" horiz-adv-x="459" 
d="M223 450q-23 0 -36 -15.5t-13 -43.5v-32h-137v21q0 37 10.5 66.5t33 50.5t57.5 32.5t84 11.5q101 0 149 -42t48 -139v-360h-130l-4 51h-3q-26 -35 -62.5 -49t-74.5 -14q-67 0 -95.5 37t-28.5 107v8q0 49 20 81.5t54 53t79.5 31t96.5 15.5v70q0 28 -12.5 43.5t-35.5 15.5z
M271 246q-52 -5 -76 -23.5t-25 -65.5v-12q0 -32 10.5 -45.5t32.5 -13.5q17 0 34 9t24 23v128zM126 616q13 30 31 46.5t43 16.5q12 0 23 -4t21.5 -9t20 -9t17.5 -4q10 0 18.5 5.5t15.5 22.5l39 -12q-11 -29 -28.5 -47t-46.5 -18q-12 0 -23 4t-21.5 8.5t-20.5 8.5t-19 4
q-20 0 -32 -25z" />
    <glyph glyph-name="Adieresis" unicode="&#xc4;" horiz-adv-x="526" 
d="M367 750l153 -750h-173l-26 133h-168l-26 -133h-121l153 750h208zM172 233h130l-64 336zM101 949h123v-122h-123v122zM296 949h123v-122h-123v122z" />
    <glyph glyph-name="adieresis" unicode="&#xe4;" horiz-adv-x="459" 
d="M223 450q-23 0 -36 -15.5t-13 -43.5v-32h-137v21q0 37 10.5 66.5t33 50.5t57.5 32.5t84 11.5q101 0 149 -42t48 -139v-360h-130l-4 51h-3q-26 -35 -62.5 -49t-74.5 -14q-67 0 -95.5 37t-28.5 107v8q0 49 20 81.5t54 53t79.5 31t96.5 15.5v70q0 28 -12.5 43.5t-35.5 15.5z
M264 734h123v-122h-123v122zM69 734h123v-122h-123v122zM271 246q-52 -5 -76 -23.5t-25 -65.5v-12q0 -32 10.5 -45.5t32.5 -13.5q17 0 34 9t24 23v128z" />
    <glyph glyph-name="Aring" unicode="&#xc5;" horiz-adv-x="526" 
d="M367 750l153 -750h-173l-26 133h-168l-26 -133h-121l153 750h208zM150 903q0 23 9 43.5t24 36t35.5 24.5t43.5 9q24 0 44.5 -9t35.5 -24.5t24 -36t9 -43.5t-9 -43.5t-24 -35.5t-35.5 -24t-44.5 -9q-23 0 -43.5 9t-35.5 24t-24 35.5t-9 43.5zM172 233h130l-64 336z
M205 903q0 -25 17 -42.5t40 -17.5q24 0 41 17.5t17 42.5q0 26 -17 43.5t-41 17.5q-23 0 -40 -17.5t-17 -43.5z" />
    <glyph glyph-name="aring" unicode="&#xe5;" horiz-adv-x="459" 
d="M223 450q-23 0 -36 -15.5t-13 -43.5v-32h-137v21q0 37 10.5 66.5t33 50.5t57.5 32.5t84 11.5q101 0 149 -42t48 -139v-360h-130l-4 51h-3q-26 -35 -62.5 -49t-74.5 -14q-67 0 -95.5 37t-28.5 107v8q0 49 20 81.5t54 53t79.5 31t96.5 15.5v70q0 28 -12.5 43.5t-35.5 15.5z
M114 695q0 23 9 43.5t24 36t35.5 24.5t43.5 9q24 0 44.5 -9t35.5 -24.5t24 -36t9 -43.5t-9 -43.5t-24 -35.5t-35.5 -24t-44.5 -9q-23 0 -43.5 9t-35.5 24t-24 35.5t-9 43.5zM271 246q-52 -5 -76 -23.5t-25 -65.5v-12q0 -32 10.5 -45.5t32.5 -13.5q17 0 34 9t24 23v128z
M169 695q0 -25 17 -42.5t40 -17.5q24 0 41 17.5t17 42.5q0 26 -17 43.5t-41 17.5q-23 0 -40 -17.5t-17 -43.5z" />
    <glyph glyph-name="AE" unicode="&#xc6;" horiz-adv-x="750" 
d="M730 107v-107h-398v133h-173l-48 -133h-126l277 750h457v-108h-217v-188h178v-107h-178v-240h228zM332 238v353l-7 1l-129 -354h136z" />
    <glyph glyph-name="ae" unicode="&#xe6;" horiz-adv-x="697" 
d="M666 180v-21q0 -76 -45 -123.5t-146 -47.5q-55 0 -91 14.5t-59 40.5q-26 -25 -64 -40t-90 -15q-82 0 -116.5 37t-34.5 115q0 53 21 86.5t56.5 53t81 28.5t94.5 14v62q0 29 -11.5 46t-34.5 17q-24 0 -37 -17.5t-13 -45.5v-25l-140 1q-1 53 14.5 88t42 55.5t60.5 29t70 8.5
q82 0 130 -34q23 15 54 24.5t69 9.5q104 0 147 -51.5t43 -151.5v-111h-247v-72q0 -32 13 -52.5t43 -20.5q32 0 45.5 20.5t13.5 52.5v25h131zM420 312h112v65q0 34 -12.5 53t-42.5 19q-29 0 -43 -18.5t-14 -53.5v-65zM273 246q-56 -8 -79.5 -27.5t-23.5 -65.5
q0 -40 13.5 -52.5t35.5 -12.5q17 0 31.5 8t22.5 21v129z" />
    <glyph glyph-name="Ccedilla" unicode="&#xc7;" horiz-adv-x="528" 
d="M193 -167q22 -11 38.5 -15t36.5 -4q21 0 35 8.5t14 27.5q0 13 -7.5 20.5t-19.5 11t-26.5 3.5t-27.5 -1l-22 27l42 75q-58 3 -99 21t-67 48t-38 72t-12 93v303q0 55 14 100t43.5 76.5t75 48.5t109.5 17q65 0 108 -16.5t68.5 -47.5t35.5 -75.5t10 -100.5q0 -6 -0.5 -13
t-0.5 -13v-13h-152v14q0 6 0.5 13.5t0.5 15.5q0 66 -17 98t-55 32q-33 0 -50.5 -24.5t-17.5 -69.5v-375q0 -56 21 -77.5t50 -21.5q35 0 54.5 26.5t19.5 91.5q0 7 -0.5 14t-0.5 13v13h153v-8q0 -4 0.5 -8t0.5 -9q0 -47 -9.5 -88t-31.5 -72.5t-59 -51.5t-92 -25l-33 -51l2 -2
q22 0 42 -4t35 -14t24 -25.5t9 -37.5q0 -24 -9.5 -41t-26 -28t-38 -16t-45.5 -5q-29 0 -54 7t-48 19z" />
    <glyph glyph-name="ccedilla" unicode="&#xe7;" horiz-adv-x="459" 
d="M145 -167q22 -11 38.5 -15t36.5 -4q21 0 35 8.5t14 27.5q0 13 -7.5 20.5t-19.5 11t-26.5 3.5t-27.5 -1l-22 27l45 78q-95 7 -135.5 60.5t-40.5 148.5v134q0 98 48 153.5t158 55.5q53 0 89 -11.5t57.5 -35t31 -58t9.5 -80.5v-38h-137v57q0 35 -12 53.5t-39 18.5
t-39.5 -18.5t-12.5 -53.5v-220q0 -32 12 -52.5t42 -20.5t42 20.5t12 52.5v48h138v-42q0 -78 -39.5 -121t-122.5 -50l-35 -54l2 -2q22 0 42 -4t35 -14t24 -25.5t9 -37.5q0 -24 -9.5 -41t-26 -28t-38 -16t-45.5 -5q-29 0 -54 7t-48 19z" />
    <glyph glyph-name="Eth" unicode="&#xd0;" horiz-adv-x="589" 
d="M67 0v345h-42v85h42v320h233q132 0 190.5 -60.5t58.5 -178.5v-271q0 -116 -58.5 -178t-190.5 -62h-233zM288 107q50 0 70.5 28t20.5 75v335q0 50 -20.5 76.5t-70.5 26.5h-53v-218h76v-85h-76v-238h53z" />
    <glyph glyph-name="eth" unicode="&#xf0;" horiz-adv-x="492" 
d="M154 563l-22 66l78 25q-30 29 -76 54l102 64q31 -17 56.5 -35.5t46.5 -39.5l65 21l21 -65l-40 -14q33 -54 47 -123.5t15 -163.5v-7v-164q0 -92 -49 -142.5t-157 -50.5t-157 50.5t-49 142.5v134q0 94 48.5 151.5t144.5 57.5q14 0 31.5 -3t33.5 -10q-6 43 -34 87zM241 430
q-27 0 -41 -18.5t-14 -53.5v-203q0 -32 12.5 -52.5t42.5 -20.5t42.5 20.5t12.5 52.5v203q0 35 -14 53.5t-41 18.5z" />
    <glyph glyph-name="Egrave" unicode="&#xc8;" 
d="M447 106v-106h-392v750h385v-106h-215v-191h176v-106h-176v-241h222zM246 897l58 -97h-62l-90 97h94z" />
    <glyph glyph-name="egrave" unicode="&#xe8;" horiz-adv-x="468" 
d="M432 180v-21q0 -76 -45.5 -123.5t-146.5 -47.5q-56 0 -95 14.5t-63.5 41.5t-35.5 66t-11 88v134q0 100 49.5 154.5t157.5 54.5q104 0 147.5 -51t43.5 -151v-109h-247v-75q0 -73 56 -73q57 0 57 73v25h133zM296 378q0 71 -55 71t-55 -71v-64h110v64zM228 707l58 -97h-62
l-90 97h94z" />
    <glyph glyph-name="Eacute" unicode="&#xc9;" 
d="M447 106v-106h-392v750h385v-106h-215v-191h176v-106h-176v-241h222zM266 800h-63l58 96h92z" />
    <glyph glyph-name="eacute" unicode="&#xe9;" horiz-adv-x="468" 
d="M432 180v-21q0 -76 -45.5 -123.5t-146.5 -47.5q-56 0 -95 14.5t-63.5 41.5t-35.5 66t-11 88v134q0 100 49.5 154.5t157.5 54.5q104 0 147.5 -51t43.5 -151v-109h-247v-75q0 -73 56 -73q57 0 57 73v25h133zM296 378q0 71 -55 71t-55 -71v-64h110v64zM266 611h-63l58 96h92
z" />
    <glyph glyph-name="Ecircumflex" unicode="&#xca;" 
d="M447 106v-106h-392v750h385v-106h-215v-191h176v-106h-176v-241h222zM298 883l60 -83h-58l-40 49l-38 -49h-58l60 83h74z" />
    <glyph glyph-name="ecircumflex" unicode="&#xea;" horiz-adv-x="468" 
d="M432 180v-21q0 -76 -45.5 -123.5t-146.5 -47.5q-56 0 -95 14.5t-63.5 41.5t-35.5 66t-11 88v134q0 100 49.5 154.5t157.5 54.5q104 0 147.5 -51t43.5 -151v-109h-247v-75q0 -73 56 -73q57 0 57 73v25h133zM296 378q0 71 -55 71t-55 -71v-64h110v64zM267 694l60 -83h-58
l-40 49l-38 -49h-58l60 83h74z" />
    <glyph glyph-name="Edieresis" unicode="&#xcb;" 
d="M447 106v-106h-392v750h385v-106h-215v-191h176v-106h-176v-241h222zM90 949h123v-122h-123v122zM285 949h123v-122h-123v122z" />
    <glyph glyph-name="edieresis" unicode="&#xeb;" horiz-adv-x="468" 
d="M432 180v-21q0 -76 -45.5 -123.5t-146.5 -47.5q-56 0 -95 14.5t-63.5 41.5t-35.5 66t-11 88v134q0 100 49.5 154.5t157.5 54.5q104 0 147.5 -51t43.5 -151v-109h-247v-75q0 -73 56 -73q57 0 57 73v25h133zM296 378q0 71 -55 71t-55 -71v-64h110v64zM82 734h123v-122h-123
v122zM277 734h123v-122h-123v122z" />
    <glyph glyph-name="Igrave" unicode="&#xcc;" horiz-adv-x="280" 
d="M55 750h170v-750h-170v750zM148 897l58 -97h-62l-90 97h94z" />
    <glyph glyph-name="igrave" unicode="&#xec;" horiz-adv-x="249" 
d="M50 529h149v-529h-149v529zM133 707l58 -97h-62l-90 97h94z" />
    <glyph glyph-name="Iacute" unicode="&#xcd;" horiz-adv-x="280" 
d="M55 750h170v-750h-170v750zM143 800h-63l58 96h92z" />
    <glyph glyph-name="iacute" unicode="&#xed;" horiz-adv-x="249" 
d="M50 529h149v-529h-149v529zM139 611h-63l58 96h92z" />
    <glyph glyph-name="Icircumflex" unicode="&#xce;" horiz-adv-x="280" 
d="M55 750h170v-750h-170v750zM179 883l60 -83h-58l-40 49l-38 -49h-58l60 83h74z" />
    <glyph glyph-name="icircumflex" unicode="&#xee;" horiz-adv-x="260" 
d="M56 529h149v-529h-149v529zM166 694l60 -83h-58l-40 49l-38 -49h-58l60 83h74z" />
    <glyph glyph-name="Idieresis" unicode="&#xcf;" horiz-adv-x="280" 
d="M55 750h170v-750h-170v750zM-19 949h123v-122h-123v122zM176 949h123v-122h-123v122z" />
    <glyph glyph-name="idieresis" unicode="&#xef;" horiz-adv-x="249" 
d="M50 529h149v-529h-149v529zM-15 725h107v-113h-107v113zM157 725h107v-113h-107v113z" />
    <glyph glyph-name="dotlessi" unicode="&#x131;" horiz-adv-x="249" 
d="M50 529h149v-529h-149v529z" />
    <glyph glyph-name="Lslash" unicode="&#x141;" horiz-adv-x="443" 
d="M68 750h170v-284l126 74v-91l-126 -74v-263h188v-112h-358v275l-50 -28v92l50 28v383z" />
    <glyph glyph-name="lslash" unicode="&#x142;" horiz-adv-x="288" 
d="M70 290l-55 -32v92l55 32v368h148v-282l55 32v-91l-55 -32v-377h-148v290z" />
    <glyph glyph-name="Ntilde" unicode="&#xd1;" horiz-adv-x="595" 
d="M540 0h-155l-214 550v-550h-116v750h205l165 -422v422h115v-750zM195 814q13 30 31 46.5t43 16.5q12 0 23 -4t21.5 -9t20 -9t17.5 -4q10 0 18.5 5.5t15.5 22.5l39 -12q-11 -29 -28.5 -47t-46.5 -18q-12 0 -23 4t-21.5 8.5t-20.5 8.5t-19 4q-20 0 -32 -25z" />
    <glyph glyph-name="ntilde" unicode="&#xf1;" horiz-adv-x="500" 
d="M304 0v368q0 32 -8.5 52t-38.5 20q-19 0 -34 -11t-25 -25v-404h-148v529h142v-45h2q26 25 59.5 39.5t67.5 14.5q74 0 104 -40.5t30 -128.5v-369h-151zM58 626q21 51 51.5 78t72.5 27q20 0 38.5 -6.5t36 -14.5t32.5 -14.5t29 -6.5q16 0 30.5 9.5t26.5 36.5l64 -20
q-17 -48 -46 -78.5t-79 -30.5q-20 0 -38 6.5t-35.5 14.5t-34 14.5t-32.5 6.5q-33 0 -52 -42z" />
    <glyph glyph-name="Ograve" unicode="&#xd2;" horiz-adv-x="579" 
d="M40 539q0 106 61.5 166t188.5 60t188 -59.5t61 -166.5v-316q0 -112 -61 -175t-188 -63q-128 0 -189 63t-61 175v316zM367 558q0 47 -19.5 74t-57.5 27q-39 0 -58.5 -27t-19.5 -74v-364q0 -103 78 -103q77 0 77 103v364zM285 897l58 -97h-62l-90 97h94z" />
    <glyph glyph-name="ograve" unicode="&#xf2;" horiz-adv-x="482" 
d="M241 -12q-54 0 -93 15t-64 42t-37 65t-12 84v141q0 94 49 150t157 56t157 -56t49 -150v-141q0 -46 -12 -84t-37 -65t-64 -42t-93 -15zM241 447q-27 0 -41 -18.5t-14 -53.5v-220q0 -32 12.5 -52.5t42.5 -20.5t42.5 20.5t12.5 52.5v220q0 35 -14 53.5t-41 18.5zM213 707
l58 -97h-62l-90 97h94z" />
    <glyph glyph-name="Oacute" unicode="&#xd3;" horiz-adv-x="579" 
d="M40 539q0 106 61.5 166t188.5 60t188 -59.5t61 -166.5v-316q0 -112 -61 -175t-188 -63q-128 0 -189 63t-61 175v316zM367 558q0 47 -19.5 74t-57.5 27q-39 0 -58.5 -27t-19.5 -74v-364q0 -103 78 -103q77 0 77 103v364zM307 800h-63l58 96h92z" />
    <glyph glyph-name="oacute" unicode="&#xf3;" horiz-adv-x="482" 
d="M241 -12q-54 0 -93 15t-64 42t-37 65t-12 84v141q0 94 49 150t157 56t157 -56t49 -150v-141q0 -46 -12 -84t-37 -65t-64 -42t-93 -15zM241 447q-27 0 -41 -18.5t-14 -53.5v-220q0 -32 12.5 -52.5t42.5 -20.5t42.5 20.5t12.5 52.5v220q0 35 -14 53.5t-41 18.5zM266 611
h-63l58 96h92z" />
    <glyph glyph-name="Ocircumflex" unicode="&#xd4;" horiz-adv-x="579" 
d="M40 539q0 106 61.5 166t188.5 60t188 -59.5t61 -166.5v-316q0 -112 -61 -175t-188 -63q-128 0 -189 63t-61 175v316zM367 558q0 47 -19.5 74t-57.5 27q-39 0 -58.5 -27t-19.5 -74v-364q0 -103 78 -103q77 0 77 103v364zM329 883l60 -83h-58l-40 49l-38 -49h-58l60 83h74z
" />
    <glyph glyph-name="ocircumflex" unicode="&#xf4;" horiz-adv-x="482" 
d="M241 -12q-54 0 -93 15t-64 42t-37 65t-12 84v141q0 94 49 150t157 56t157 -56t49 -150v-141q0 -46 -12 -84t-37 -65t-64 -42t-93 -15zM241 447q-27 0 -41 -18.5t-14 -53.5v-220q0 -32 12.5 -52.5t42.5 -20.5t42.5 20.5t12.5 52.5v220q0 35 -14 53.5t-41 18.5zM277 694
l60 -83h-58l-40 49l-38 -49h-58l60 83h74z" />
    <glyph glyph-name="Otilde" unicode="&#xd5;" horiz-adv-x="579" 
d="M40 539q0 106 61.5 166t188.5 60t188 -59.5t61 -166.5v-316q0 -112 -61 -175t-188 -63q-128 0 -189 63t-61 175v316zM367 558q0 47 -19.5 74t-57.5 27q-39 0 -58.5 -27t-19.5 -74v-364q0 -103 78 -103q77 0 77 103v364zM175 814q13 30 31 46.5t43 16.5q12 0 23 -4
t21.5 -9t20 -9t17.5 -4q10 0 18.5 5.5t15.5 22.5l39 -12q-11 -29 -28.5 -47t-46.5 -18q-12 0 -23 4t-21.5 8.5t-20.5 8.5t-19 4q-20 0 -32 -25z" />
    <glyph glyph-name="otilde" unicode="&#xf5;" horiz-adv-x="482" 
d="M241 -12q-54 0 -93 15t-64 42t-37 65t-12 84v141q0 94 49 150t157 56t157 -56t49 -150v-141q0 -46 -12 -84t-37 -65t-64 -42t-93 -15zM241 447q-27 0 -41 -18.5t-14 -53.5v-220q0 -32 12.5 -52.5t42.5 -20.5t42.5 20.5t12.5 52.5v220q0 35 -14 53.5t-41 18.5zM126 616
q13 30 31 46.5t43 16.5q12 0 23 -4t21.5 -9t20 -9t17.5 -4q10 0 18.5 5.5t15.5 22.5l39 -12q-11 -29 -28.5 -47t-46.5 -18q-12 0 -23 4t-21.5 8.5t-20.5 8.5t-19 4q-20 0 -32 -25z" />
    <glyph glyph-name="Odieresis" unicode="&#xd6;" horiz-adv-x="579" 
d="M40 539q0 106 61.5 166t188.5 60t188 -59.5t61 -166.5v-316q0 -112 -61 -175t-188 -63q-128 0 -189 63t-61 175v316zM367 558q0 47 -19.5 74t-57.5 27q-39 0 -58.5 -27t-19.5 -74v-364q0 -103 78 -103q77 0 77 103v364zM131 949h123v-122h-123v122zM326 949h123v-122
h-123v122z" />
    <glyph glyph-name="odieresis" unicode="&#xf6;" horiz-adv-x="482" 
d="M241 -12q-54 0 -93 15t-64 42t-37 65t-12 84v141q0 94 49 150t157 56t157 -56t49 -150v-141q0 -46 -12 -84t-37 -65t-64 -42t-93 -15zM241 447q-27 0 -41 -18.5t-14 -53.5v-220q0 -32 12.5 -52.5t42.5 -20.5t42.5 20.5t12.5 52.5v220q0 35 -14 53.5t-41 18.5zM81 734h123
v-122h-123v122zM276 734h123v-122h-123v122z" />
    <glyph glyph-name="Oslash" unicode="&#xd8;" horiz-adv-x="583" 
d="M40 532q0 53 15.5 96t46.5 73.5t78.5 47t111.5 16.5q53 0 94 -11.5t71 -32.5l33 56l53 -30l-41 -70q41 -58 41 -145v-302q0 -56 -15 -101t-46 -77t-78.5 -49.5t-111.5 -17.5q-107 0 -168 47l-33 -56l-51 29l41 71q-41 59 -41 154v302zM292 91q41 0 60 27t19 78v257
l-159 -271q2 -45 21.5 -68t58.5 -23zM292 659q-42 0 -61 -29t-19 -77v-253l158 272q-3 40 -22 63.5t-56 23.5z" />
    <glyph glyph-name="oslash" unicode="&#xf8;" horiz-adv-x="482" 
d="M390 571l45 -26l-37 -62q25 -28 37 -66t12 -85v-134q0 -46 -12 -84.5t-37 -66.5t-64 -43.5t-93 -15.5q-36 0 -65 7t-52 20l-34 -58l-43 24l38 65q-26 28 -38 66.5t-12 85.5v134q0 47 12 85.5t37 66t64 42.5t93 15q70 0 116 -26zM241 447q-27 0 -41 -18.5t-14 -53.5v-155
l107 184q-11 43 -52 43zM241 82q30 0 42.5 20.5t12.5 52.5v153l-107 -183q5 -20 17 -31.5t35 -11.5z" />
    <glyph glyph-name="OE" unicode="&#x152;" horiz-adv-x="781" 
d="M764 106v-106h-369q-44 -15 -103 -15q-66 0 -114 17.5t-78.5 49.5t-45 77t-14.5 101v302q0 53 15.5 96t46.5 73.5t78.5 47t111.5 16.5q30 0 56 -4t49 -11h358v-106h-212v-191h176v-106h-176v-241h221zM369 562q-2 45 -21 71t-58 26q-42 0 -61 -29t-19 -77v-357
q0 -51 19 -78t61 -27q74 0 79 95v376z" />
    <glyph glyph-name="oe" unicode="&#x153;" horiz-adv-x="731" 
d="M241 -12q-54 0 -93 15t-64 42.5t-37 65.5t-12 84v140q0 94 49 150t157 56q43 0 78 -13t56 -33q22 20 56.5 33t74.5 13q104 0 147 -51.5t43 -151.5v-111h-247v-72q0 -32 13 -52.5t43 -20.5q32 0 45.5 20.5t13.5 52.5v25h131v-21q0 -76 -45 -123.5t-146 -47.5
q-46 0 -78.5 13.5t-52.5 36.5q-20 -23 -54 -36.5t-78 -13.5zM241 447q-27 0 -41 -18.5t-14 -53.5v-220q0 -32 12.5 -52.5t42.5 -20.5t42.5 20.5t12.5 52.5v220q0 35 -14 53.5t-41 18.5zM561 377q0 34 -12.5 53t-42.5 19q-29 0 -43 -18.5t-14 -53.5v-65h112v65z" />
    <glyph glyph-name="Thorn" unicode="&#xde;" horiz-adv-x="527" 
d="M223 179v-179h-168v750h168v-121h91q102 0 156.5 -56t54.5 -164q0 -34 -9 -74.5t-35.5 -75t-75.5 -57.5t-129 -23h-53zM223 526v-244h35q29 0 48 10.5t30 28t15.5 40.5t4.5 48q0 52 -22 84.5t-78 32.5h-33z" />
    <glyph glyph-name="thorn" unicode="&#xfe;" horiz-adv-x="490" 
d="M198 509q20 14 46 23t55 9q85 0 120.5 -49.5t35.5 -158.5v-131q0 -102 -37.5 -158t-125.5 -56q-27 0 -52 8t-42 22v-176h-148v908h148v-241zM198 108q12 -11 26 -17.5t28 -6.5q28 0 40 20t12 54v213q0 32 -10 52.5t-40 20.5q-17 0 -31 -9.5t-25 -20.5v-306z" />
    <glyph glyph-name="Scaron" unicode="&#x160;" horiz-adv-x="499" 
d="M192 819l-110 152h106l71 -90l70 90h107l-111 -152h-133zM156 238q1 -80 25 -113.5t67 -33.5q37 0 57 21t20 59q0 32 -21.5 58t-54.5 51t-70.5 51t-70.5 58.5t-54.5 74.5t-21.5 97q0 96 59.5 150t162.5 54q51 0 92 -13t69 -41.5t42 -74t11 -111.5h-140q0 69 -18 101.5
t-56 32.5q-29 0 -46 -18.5t-17 -51.5t22 -59.5t54.5 -51.5t70.5 -51t70.5 -58t54.5 -73t22 -95q0 -43 -12 -82t-39.5 -69t-72.5 -47.5t-111 -17.5q-57 0 -102.5 15t-77 46.5t-47 79t-13.5 112.5h146z" />
    <glyph glyph-name="scaron" unicode="&#x161;" horiz-adv-x="421" 
d="M146 610l-105 151h101l69 -89l67 89h103l-107 -151h-128zM143 182q2 -54 18.5 -78t48.5 -24q27 0 39.5 13.5t12.5 34.5t-17 36.5t-43 30.5t-56 31.5t-56 38.5t-43 52t-17 73q0 39 13.5 67t37.5 47t56.5 28t71.5 9q42 0 77 -8.5t59 -29.5t36.5 -56.5t10.5 -89.5h-121
q0 51 -15.5 71t-42.5 20q-20 0 -31.5 -10.5t-11.5 -31.5q0 -23 17.5 -40t43 -32t56 -30.5t56 -36.5t43 -49.5t17.5 -69.5q0 -78 -49.5 -119.5t-143.5 -41.5q-92 0 -145.5 47t-49.5 148h128z" />
    <glyph glyph-name="Ugrave" unicode="&#xd9;" horiz-adv-x="571" 
d="M220 750v-559q0 -46 21 -72.5t62 -26.5q42 0 62 26.5t20 72.5v559h136v-539q0 -112 -63 -169t-168 -57q-64 0 -109.5 17t-74.5 47t-42.5 71.5t-13.5 90.5v539h170zM285 897l58 -97h-62l-90 97h94z" />
    <glyph glyph-name="ugrave" unicode="&#xf9;" horiz-adv-x="500" 
d="M196 529v-377q0 -38 13.5 -51.5t33.5 -13.5t35 10.5t24 23.5v408h148v-529h-143v42h-2q-46 -54 -126 -54q-69 0 -101.5 40.5t-32.5 128.5v372h151zM213 707l58 -97h-62l-90 97h94z" />
    <glyph glyph-name="Uacute" unicode="&#xda;" horiz-adv-x="571" 
d="M220 750v-559q0 -46 21 -72.5t62 -26.5q42 0 62 26.5t20 72.5v559h136v-539q0 -112 -63 -169t-168 -57q-64 0 -109.5 17t-74.5 47t-42.5 71.5t-13.5 90.5v539h170zM341 800h-63l58 96h92z" />
    <glyph glyph-name="uacute" unicode="&#xfa;" horiz-adv-x="500" 
d="M196 529v-377q0 -38 13.5 -51.5t33.5 -13.5t35 10.5t24 23.5v408h148v-529h-143v42h-2q-46 -54 -126 -54q-69 0 -101.5 40.5t-32.5 128.5v372h151zM266 611h-63l58 96h92z" />
    <glyph glyph-name="Ucircumflex" unicode="&#xdb;" horiz-adv-x="571" 
d="M220 750v-559q0 -46 21 -72.5t62 -26.5q42 0 62 26.5t20 72.5v559h136v-539q0 -112 -63 -169t-168 -57q-64 0 -109.5 17t-74.5 47t-42.5 71.5t-13.5 90.5v539h170zM343 883l60 -83h-58l-40 49l-38 -49h-58l60 83h74z" />
    <glyph glyph-name="ucircumflex" unicode="&#xfb;" horiz-adv-x="500" 
d="M196 529v-377q0 -38 13.5 -51.5t33.5 -13.5t35 10.5t24 23.5v408h148v-529h-143v42h-2q-46 -54 -126 -54q-69 0 -101.5 40.5t-32.5 128.5v372h151zM285 694l60 -83h-58l-40 49l-38 -49h-58l60 83h74z" />
    <glyph glyph-name="Udieresis" unicode="&#xdc;" horiz-adv-x="571" 
d="M220 750v-559q0 -46 21 -72.5t62 -26.5q42 0 62 26.5t20 72.5v559h136v-539q0 -112 -63 -169t-168 -57q-64 0 -109.5 17t-74.5 47t-42.5 71.5t-13.5 90.5v539h170zM333 949h123v-122h-123v122zM138 949h123v-122h-123v122z" />
    <glyph glyph-name="udieresis" unicode="&#xfc;" horiz-adv-x="500" 
d="M90 734h123v-122h-123v122zM285 734h123v-122h-123v122zM196 529v-377q0 -38 13.5 -51.5t33.5 -13.5t35 10.5t24 23.5v408h148v-529h-143v42h-2q-46 -54 -126 -54q-69 0 -101.5 40.5t-32.5 128.5v372h151z" />
    <glyph glyph-name="Yacute" unicode="&#xdd;" horiz-adv-x="501" 
d="M183 750l97 -315l92 315h128l-162 -468v-282h-172v282l-165 468h182zM292 800h-63l58 96h92z" />
    <glyph glyph-name="yacute" unicode="&#xfd;" horiz-adv-x="437" 
d="M40 -56q10 -2 17.5 -2.5t17.5 -0.5q41 0 56 17.5t15 43.5q0 17 -4 33t-9 33l-132 461h154l85 -369h3l79 369h114l-138 -516q-22 -81 -67.5 -125t-133.5 -46q-15 0 -29 1t-28 3v98zM266 611h-63l58 96h92z" />
    <glyph glyph-name="Ydieresis" unicode="&#x178;" horiz-adv-x="501" 
d="M183 750l97 -315l92 315h128l-162 -468v-282h-172v282l-165 468h182zM106 949h123v-122h-123v122zM301 949h123v-122h-123v122z" />
    <glyph glyph-name="ydieresis" unicode="&#xff;" horiz-adv-x="437" 
d="M40 -56q10 -2 17.5 -2.5t17.5 -0.5q41 0 56 18t15 44q0 17 -4 33.5t-9 31.5l-132 461h154l85 -369h3l79 369h114l-138 -516q-22 -81 -67.5 -125t-133.5 -46q-15 0 -29 1t-28 3v98zM68 734h123v-122h-123v122zM263 734h123v-122h-123v122z" />
    <glyph glyph-name="Zcaron" unicode="&#x17d;" horiz-adv-x="460" 
d="M445 0h-430v103l247 539h-236v108h413v-103l-247 -540h253v-107zM168 819l-110 152h106l71 -90l70 90h107l-111 -152h-133z" />
    <glyph glyph-name="zcaron" unicode="&#x17e;" horiz-adv-x="391" 
d="M15 80l203 354h-189v95h346v-93l-195 -341h199v-95h-364v80zM137 610l-110 152h106l71 -90l70 90h107l-111 -152h-133z" />
    <glyph glyph-name="fi" unicode="&#xfb01;" horiz-adv-x="531" 
d="M215 529h266v-529h-149v433h-117v-433h-148v433h-57v96h57v45q0 47 14 81t40 56.5t62 33t80 10.5q19 0 37 -1.5t26 -3.5v-105q-9 2 -18.5 3t-23.5 1q-35 0 -52 -18.5t-17 -50.5v-51z" />
    <glyph glyph-name="fl" unicode="&#xfb02;" horiz-adv-x="533" 
d="M10 529h57v28q0 44 11.5 80.5t35.5 62.5t60 40.5t84 14.5q21 0 41 -1.5t37 -3.5h147v-750h-149v649q-25 5 -49 5q-35 0 -52.5 -19.5t-17.5 -63.5v-42h63v-96h-63v-433h-148v433h-57v96z" />
    <glyph glyph-name="germandbls" unicode="&#xdf;" horiz-adv-x="517" 
d="M50 557q0 109 54 158t157 49q101 0 153.5 -46.5t52.5 -138.5v-13q0 -58 -17.5 -91t-57.5 -61v-2q29 -12 47 -28t28 -38.5t14 -51.5t4 -66v-10q0 -57 -10 -99.5t-33.5 -70t-61.5 -41t-95 -13.5h-53v88h18q27 0 43 8t24.5 23t11 35.5t2.5 44.5v60q0 58 -19 82t-61 24h-8v76
l13 8q34 21 48 47t14 63v37q0 45 -16 62.5t-43 17.5t-43.5 -18t-16.5 -63v-589h-149v557z" />
    <glyph glyph-name="brokenbar" unicode="&#xa6;" horiz-adv-x="226" 
d="M55 279h116v-294h-116v294zM55 765h116v-294h-116v294z" />
    <glyph glyph-name="florin" unicode="&#x192;" horiz-adv-x="460" 
d="M413 368h-112l-46 -317q-6 -41 -18.5 -77t-35.5 -64t-58 -44t-86 -16q-23 0 -41 3.5t-32 8.5v89q8 -2 17.5 -3t21.5 -1q35 0 55 21t25 56l51 344h-100l12 86h101l21 136q5 34 21 63.5t41 51.5t58 34.5t71 12.5q23 0 41.5 -2.5t33.5 -7.5v-95q-23 5 -44 5q-30 0 -52 -21
t-28 -64l-16 -113h111z" />
    <glyph glyph-name="plusminus" unicode="&#xb1;" horiz-adv-x="632" 
d="M255 543h122v-131h205v-123h-205v-131h-122v131h-208v123h208v131zM47 0v123h537v-123h-537z" />
    <glyph glyph-name="section" unicode="&#xa7;" horiz-adv-x="466" 
d="M154 68q1 -60 21 -84.5t53 -24.5q31 0 47 18t16 47q0 25 -18.5 46t-47 41t-61 41t-61 46.5t-47 57.5t-18.5 74q0 50 25 86t67 54q-32 27 -53 61t-21 80q0 72 47.5 112.5t131.5 40.5q42 0 75 -10t55.5 -32t34 -57t9.5 -84h-114q0 101 -61 101q-22 0 -35.5 -13.5
t-13.5 -37.5t18.5 -44t46.5 -40t60.5 -40.5t60.5 -45.5t46.5 -57t18.5 -73q0 -50 -24.5 -84t-71.5 -59q35 -28 59 -62t24 -82q0 -32 -10.5 -62.5t-33.5 -53.5t-60 -37t-91 -14q-95 0 -146 46.5t-46 144.5h118zM306 310q0 15 -8 28.5t-21.5 26t-31.5 24.5t-37 25
q-42 -20 -42 -65q0 -31 29 -56t69 -51q18 11 30 27.5t12 40.5z" />
    <glyph glyph-name="ampersand" unicode="&#x26;" horiz-adv-x="647" 
d="M640 0h-80q-32 0 -61 8.5t-56 35.5q-34 -26 -80 -41t-107 -15q-59 0 -100.5 13.5t-68 38.5t-39 60.5t-12.5 78.5q0 38 9.5 68.5t27 56t42.5 48.5t56 47q-39 52 -57.5 93.5t-18.5 91.5q0 84 49.5 132t143.5 48q98 0 142.5 -44t44.5 -118q0 -35 -10 -63t-28 -52t-43 -46
t-55 -46l122 -159q5 15 6.5 31t1.5 38v92h120v-88q0 -48 -11 -89t-41 -83q20 -21 36.5 -26.5t43.5 -5.5h23v-105zM237 311q-29 -31 -38.5 -57.5t-9.5 -63.5q0 -20 5.5 -37.5t17 -31.5t30 -22t45.5 -8q31 0 53.5 7.5t40.5 21.5zM345 600q0 67 -56 67q-29 0 -43.5 -20
t-14.5 -54q0 -31 10.5 -56t34.5 -57q38 32 53.5 58.5t15.5 61.5z" />
    <glyph glyph-name="numbersign" unicode="#" horiz-adv-x="616" 
d="M536 243h-101l-34 -243h-81l34 243h-116l-34 -243h-81l34 243h-107v70h116l22 155h-106v70h116l29 212h81l-29 -212h116l29 212h81l-29 -212h90v-70h-100l-21 -155h91v-70zM248 313h116l21 155h-116z" />
    <glyph glyph-name="logicalnot" unicode="&#xac;" horiz-adv-x="632" 
d="M468 334h-419v114h533v-334h-114v220z" />
    <glyph glyph-name="zero" unicode="0" horiz-adv-x="552" 
d="M47 532q0 53 12.5 96t39.5 73.5t70.5 47t106.5 16.5t106.5 -16.5t70.5 -47t39.5 -73.5t12.5 -96v-302q0 -56 -12.5 -101t-39.5 -77t-70.5 -49.5t-106.5 -17.5t-106.5 17.5t-70.5 49.5t-39.5 77t-12.5 101v302zM205 191q0 -45 16.5 -72.5t54.5 -27.5t54.5 27.5t16.5 72.5
v369q0 48 -17.5 73.5t-53.5 25.5t-53.5 -25.5t-17.5 -73.5v-369z" />
    <glyph glyph-name="one" unicode="1" horiz-adv-x="347" 
d="M119 580l-97 -72v144l121 98h132v-750h-156v580z" />
    <glyph glyph-name="two" unicode="2" horiz-adv-x="504" 
d="M32 0v73q0 57 21 105t53 90t68.5 79t68.5 72t53 69t21 70v25q0 34 -14.5 54t-48.5 20t-51.5 -24t-17.5 -83q0 -19 1 -32.5t2 -23.5h-146q-3 28 -3 55q0 116 55.5 165.5t160.5 49.5q60 0 102 -12t68 -35.5t38 -56.5t12 -75v-28q0 -47 -17.5 -86t-45 -74t-61.5 -67
t-67.5 -64t-63.5 -64.5t-48 -69.5v-6h298v-126h-438z" />
    <glyph glyph-name="three" unicode="3" horiz-adv-x="515" 
d="M195 443h26q27 0 43.5 7t26 20t13 31.5t3.5 40.5v33q0 40 -13.5 63t-48.5 23q-32 0 -48.5 -24.5t-16.5 -83.5v-28q0 -9 1 -18h-145q-1 9 -1 19q-1 8 -1 16.5v14.5q0 50 11.5 89t37 65.5t66 40t98.5 13.5q118 0 168.5 -46t50.5 -144v-15q0 -68 -27 -105.5t-80 -54.5
q55 -14 88 -54t33 -123v-22q0 -60 -16.5 -101t-46.5 -66.5t-72 -37t-92 -11.5q-62 0 -104.5 14t-69 43t-38 72t-11.5 102v26q0 7 1 13h151q-1 -7 -1 -15v-29q0 -61 15.5 -90.5t53.5 -29.5q40 0 54.5 25.5t14.5 70.5v31q0 23 -3.5 43.5t-13 36t-28.5 24.5t-50 9h-29v112z" />
    <glyph glyph-name="four" unicode="4" horiz-adv-x="539" 
d="M281 567h-8l-114 -296v-24h122v320zM281 137h-247v150l181 463h214v-503h80v-110h-81v-137h-147v137z" />
    <glyph glyph-name="five" unicode="5" horiz-adv-x="520" 
d="M52 750h399v-126h-258v-185q7 9 19 18.5t27.5 17.5t35 13t42.5 5q51 0 83 -15.5t50.5 -44t25.5 -67.5t7 -87v-67q0 -116 -58 -171.5t-170 -55.5t-166 53t-54 173v20q0 5 1 11h151q-1 -8 -1 -16v-34q0 -54 18.5 -77.5t50.5 -23.5q37 0 53.5 25t16.5 70v94q0 48 -12 75.5
t-52 27.5q-17 0 -29.5 -6.5t-20.5 -14.5t-12.5 -15.5t-5.5 -8.5h-141v412z" />
    <glyph glyph-name="six" unicode="6" horiz-adv-x="532" 
d="M328 466q50 0 82.5 -15t51 -44.5t26 -72.5t7.5 -98q0 -62 -11.5 -108.5t-38 -78.5t-69.5 -48t-106 -16q-62 0 -104.5 17.5t-68.5 49.5t-38 77t-12 101v302q0 53 11.5 96t38 73.5t69 47t104.5 16.5q57 0 96.5 -13.5t64 -40.5t35 -67t10.5 -92q0 -5 -0.5 -9.5t-0.5 -8.5
q-1 -4 -1 -9h-138v11q0 5 0.5 10t0.5 10q0 53 -15.5 78t-51.5 25q-68 0 -68 -94v-158q23 29 57 44t69 15zM270 91q35 0 51.5 22.5t16.5 64.5v94q0 40 -15.5 62.5t-50.5 22.5q-32 0 -50 -20.5t-20 -56.5v-102q0 -42 17 -64.5t51 -22.5z" />
    <glyph glyph-name="seven" unicode="7" horiz-adv-x="424" 
d="M6 750h401v-152q-28 -61 -56 -137t-53 -156t-45.5 -159t-32.5 -146h-166q17 74 43.5 159.5t56 168t58 154.5t49.5 118v23h-255v127z" />
    <glyph glyph-name="eight" unicode="8" horiz-adv-x="528" 
d="M264 -15q-119 0 -171 55t-52 150v49q0 106 75 153q-71 44 -71 148v31q0 97 53.5 145.5t165.5 48.5t165.5 -48.5t53.5 -145.5v-31q0 -104 -71 -148q75 -47 75 -153v-49q0 -95 -52 -150t-171 -55zM264 347q-29 0 -48.5 -20t-19.5 -55v-109q0 -32 17.5 -53.5t50.5 -21.5
t50.5 21.5t17.5 53.5v109q0 35 -19.5 55t-48.5 20zM264 662q-29 0 -46 -19.5t-17 -54.5v-73q0 -32 15.5 -54t47.5 -22t47.5 22t15.5 54v73q0 35 -17 54.5t-46 19.5z" />
    <glyph glyph-name="nine" unicode="9" horiz-adv-x="529" 
d="M207 279q-49 0 -82 15.5t-52.5 45t-27.5 72t-8 96.5q0 61 11.5 109t37.5 81t68.5 50t105.5 17q61 0 103.5 -15.5t69 -45t38 -73t11.5 -98.5v-315q0 -53 -12 -96t-38.5 -73.5t-69.5 -47t-105 -16.5q-63 0 -104 14t-65 41t-33.5 67.5t-9.5 93.5v15q0 4 1 7h149
q-1 -5 -1 -10v-19q0 -50 14 -76.5t50 -26.5q38 0 53 27.5t15 77.5v137q-20 -27 -51 -40.5t-68 -13.5zM326 566q0 43 -15 68t-51 25t-51 -25t-15 -68v-96q0 -40 15 -61.5t50 -21.5q30 0 47.5 20t19.5 55v104z" />
    <glyph glyph-name="exclam" unicode="!" horiz-adv-x="364" 
d="M85 750h194l-50 -510h-94zM104 150h155v-150h-155v150z" />
    <glyph glyph-name="exclamdown" unicode="&#xa1;" horiz-adv-x="364" 
d="M279 -144h-194l50 510h94zM260 456h-155v150h155v-150z" />
    <glyph glyph-name="question" unicode="?" horiz-adv-x="497" 
d="M193 231q-13 32 -13 64q0 41 18.5 70.5t41 56.5t41 58t18.5 75v31q0 34 -12 52.5t-43 18.5q-36 0 -50 -25.5t-14 -88.5q0 -15 0.5 -27t1.5 -22h-144q-2 14 -3 34.5t-1 41.5q0 96 51 145t157 49q60 0 101 -11.5t66.5 -33.5t36.5 -53.5t11 -71.5v-38q0 -35 -13.5 -66.5
t-34.5 -60t-44.5 -55t-44.5 -51t-34.5 -47.5t-13.5 -45h-79zM157 150h155v-150h-155v150z" />
    <glyph glyph-name="questiondown" unicode="&#xbf;" horiz-adv-x="497" 
d="M304 375q6 -15 9.5 -31t3.5 -33q0 -41 -18.5 -70.5t-41 -56.5t-41 -58t-18.5 -75v-31q0 -34 12 -52.5t43 -18.5q36 0 50 25.5t14 88.5q0 15 -0.5 27t-1.5 22h144q2 -14 3 -34.5t1 -41.5q0 -96 -51 -145t-157 -49q-60 0 -101 11.5t-66.5 33.5t-36.5 53.5t-11 71.5v38
q0 35 13.5 66.5t34.5 60t44.5 55t44.5 51t34.5 47.5t13.5 45h79zM340 456h-155v150h155v-150z" />
    <glyph glyph-name="parenleft" unicode="(" horiz-adv-x="357" 
d="M192 -97q-44 98 -73 202.5t-29 221.5q0 61 8.5 119.5t23.5 113.5t34.5 106.5t41.5 98.5h109q-41 -109 -62.5 -215t-21.5 -223q0 -106 20.5 -213.5t63.5 -210.5h-115z" />
    <glyph glyph-name="parenright" unicode=")" horiz-adv-x="357" 
d="M50 -97q43 103 63.5 210.5t20.5 213.5q0 117 -21.5 223t-62.5 215h109q22 -47 41.5 -98.5t34.5 -106.5t23.5 -113.5t8.5 -119.5q0 -117 -29.5 -221.5t-72.5 -202.5h-115z" />
    <glyph glyph-name="bracketleft" unicode="[" horiz-adv-x="334" 
d="M75 765h219v-93h-97v-680h97v-93h-219v866z" />
    <glyph glyph-name="bracketright" unicode="]" horiz-adv-x="334" 
d="M259 -101h-219v93h97v680h-97v93h219v-866z" />
    <glyph glyph-name="braceleft" unicode="{" horiz-adv-x="338" 
d="M17 370q15 2 29.5 7.5t25.5 16t18 25.5t7 37v140q0 77 38 122.5t106 57.5l67 12v-98l-27 -6q-21 -4 -33.5 -14.5t-18.5 -23.5t-7.5 -27t-1.5 -24v-144q0 -30 -9.5 -51t-24.5 -35.5t-33 -23.5t-35 -14v-2q17 -5 35 -14t33 -23.5t24.5 -35.5t9.5 -51v-144q0 -11 1.5 -24.5
t7.5 -26.5t18.5 -23.5t33.5 -14.5l27 -6v-98l-67 12q-68 12 -106 57.5t-38 122.5v140q0 22 -7 37t-18 25.5t-25.5 16t-29.5 7.5v88z" />
    <glyph glyph-name="braceright" unicode="}" horiz-adv-x="338" 
d="M321 282q-15 -2 -29.5 -7.5t-25.5 -16t-18 -25.5t-7 -37v-140q0 -77 -38 -122.5t-106 -57.5l-67 -12v98l27 6q21 4 33.5 14.5t18.5 23.5t7.5 26.5t1.5 24.5v144q0 30 9.5 51t24.5 35.5t33 23.5t35 14v2q-17 5 -35 14t-33 23.5t-24.5 35.5t-9.5 51v144q0 10 -1.5 24
t-7.5 27t-18.5 23.5t-33.5 14.5l-27 6v98l67 -12q68 -12 106 -57.5t38 -122.5v-140q0 -22 7 -37t18 -25.5t25.5 -16t29.5 -7.5v-88z" />
    <glyph glyph-name="slash" unicode="/" horiz-adv-x="372" 
d="M283 765h122l-316 -780h-122z" />
    <glyph glyph-name="backslash" unicode="\" horiz-adv-x="372" 
d="M405 -15h-122l-316 780h122z" />
    <glyph glyph-name="bar" unicode="|" horiz-adv-x="226" 
d="M55 765h116v-780h-116v780z" />
    <glyph glyph-name="fraction" unicode="&#x2044;" horiz-adv-x="176" 
d="M-84 -24h-97l441 798h97z" />
    <glyph glyph-name="dagger" unicode="&#x2020;" horiz-adv-x="537" 
d="M120 423h-85v138h85l94 -32h11l-30 119v102h146v-102l-30 -119h12l94 32h85v-138h-85l-94 32h-10l29 -169l-37 -436h-74l-36 436l28 169h-9z" />
    <glyph glyph-name="daggerdbl" unicode="&#x2021;" horiz-adv-x="537" 
d="M223 455h-9l-94 -32h-85v138h85l94 -32h11l-30 119v102h146v-102l-30 -119h12l94 32h85v-138h-85l-94 32h-10l29 -169l-28 -169h9l94 32h85v-138h-85l-94 32h-11l30 -119v-102h-146v102l30 119h-12l-94 -32h-85v138h85l94 -32h10l-29 169z" />
    <glyph glyph-name="hyphen" unicode="-" horiz-adv-x="312" 
d="M29 339h253v-121h-253v121z" />
    <glyph glyph-name="endash" unicode="&#x2013;" horiz-adv-x="546" 
d="M10 338h526v-119h-526v119z" />
    <glyph glyph-name="emdash" unicode="&#x2014;" horiz-adv-x="1073" 
d="M10 338h1053v-119h-1053v119z" />
    <glyph glyph-name="underscore" unicode="_" horiz-adv-x="526" 
d="M0 -132v53h526v-53h-526z" />
    <glyph glyph-name="quotesingle" unicode="'" horiz-adv-x="259" 
d="M70 750h119v-138l-15 -185h-89l-15 184v139z" />
    <glyph glyph-name="quotedbl" unicode="&#x22;" horiz-adv-x="466" 
d="M70 750h119v-138l-15 -185h-89l-15 184v139zM277 750h119v-138l-15 -185h-89l-15 184v139z" />
    <glyph glyph-name="quoteleft" unicode="&#x2018;" horiz-adv-x="253" 
d="M40 475v108q0 29 7 49t17 40q18 38 29 58q6 11 11 20h95l-64 -133h73v-142h-168z" />
    <glyph glyph-name="quoteright" unicode="&#x2019;" horiz-adv-x="253" 
d="M213 750v-108q0 -29 -7 -49t-17 -40q-10 -19 -17 -33.5t-12 -24.5q-6 -11 -11 -20h-95l64 133h-73v142h168z" />
    <glyph glyph-name="quotedblleft" unicode="&#x201c;" horiz-adv-x="489" 
d="M276 475v108q0 29 7 49t17 40q18 38 29 58q6 11 11 20h95l-64 -133h73v-142h-168zM40 475v108q0 29 7 49t17 40q18 38 29 58q6 11 11 20h95l-64 -133h73v-142h-168z" />
    <glyph glyph-name="quotedblright" unicode="&#x201d;" horiz-adv-x="489" 
d="M213 750v-108q0 -29 -7 -49t-17 -40q-10 -19 -17 -33.5t-12 -24.5q-6 -11 -11 -20h-95l64 133h-73v142h168zM449 750v-108q0 -29 -7 -49t-17 -40q-10 -19 -17 -33.5t-12 -24.5q-6 -11 -11 -20h-95l64 133h-73v142h168z" />
    <glyph glyph-name="quotesinglbase" unicode="&#x201a;" horiz-adv-x="253" 
d="M213 142v-108q0 -29 -7 -49t-17 -40q-10 -19 -17 -33.5t-12 -24.5q-6 -11 -11 -20h-95l64 133h-73v142h168z" />
    <glyph glyph-name="quotedblbase" unicode="&#x201e;" horiz-adv-x="489" 
d="M213 142v-108q0 -29 -7 -49t-17 -40q-10 -19 -17 -33.5t-12 -24.5q-6 -11 -11 -20h-95l64 133h-73v142h168zM449 142v-108q0 -29 -7 -49t-17 -40q-10 -19 -17 -33.5t-12 -24.5q-6 -11 -11 -20h-95l64 133h-73v142h168z" />
    <glyph glyph-name="guilsinglleft" unicode="&#x2039;" horiz-adv-x="322" 
d="M214 491l68 -72l-131 -147l131 -149l-68 -71l-199 220z" />
    <glyph glyph-name="guilsinglright" unicode="&#x203a;" horiz-adv-x="322" 
d="M307 272l-199 -220l-68 71l131 149l-131 147l68 72z" />
    <glyph glyph-name="guillemotleft" unicode="&#xab;" horiz-adv-x="567" 
d="M459 491l68 -72l-131 -147l131 -149l-68 -71l-199 220zM213 491l70 -72l-133 -147l133 -149l-70 -71l-198 220z" />
    <glyph glyph-name="guillemotright" unicode="&#xbb;" horiz-adv-x="567" 
d="M307 272l-199 -220l-68 71l131 149l-131 147l68 72zM552 272l-198 -220l-70 71l133 149l-133 147l70 72z" />
    <glyph glyph-name="plus" unicode="+" horiz-adv-x="632" 
d="M255 543h122v-208h207v-123h-207v-212h-122v212h-208v123h208v208z" />
    <glyph glyph-name="minus" unicode="&#x2212;" horiz-adv-x="632" 
d="M47 212v123h537v-123h-537z" />
    <glyph glyph-name="multiply" unicode="&#xd7;" horiz-adv-x="632" 
d="M60 446l87 86l169 -169l169 169l86 -86l-169 -169l169 -170l-86 -86l-169 170l-169 -170l-87 86l170 169z" />
    <glyph glyph-name="divide" unicode="&#xf7;" horiz-adv-x="632" 
d="M47 214v123h537v-123h-537zM316 576q18 0 34.5 -7t28.5 -19t19 -28t7 -34q0 -37 -26 -63t-63 -26t-63 26t-26 63q0 18 7 34t19 28t28.5 19t34.5 7zM316 151q37 0 63 -26t26 -63q0 -18 -7 -34t-19 -28t-28.5 -19t-34.5 -7t-34.5 7t-28.5 19t-19 28t-7 34q0 37 26 63t63 26
z" />
    <glyph glyph-name="equal" unicode="=" horiz-adv-x="632" 
d="M585 323h-539v123h539v-123zM585 87h-539v123h539v-123z" />
    <glyph glyph-name="less" unicode="&#x3c;" horiz-adv-x="632" 
d="M579 -8l-523 225v99l523 225v-117l-363 -158l363 -157v-117z" />
    <glyph glyph-name="greater" unicode="&#x3e;" horiz-adv-x="632" 
d="M56 109l363 157l-363 158v117l523 -225v-99l-523 -225v117z" />
    <glyph glyph-name="dollar" unicode="$" horiz-adv-x="512" 
d="M166 246q1 -75 24 -106t63 -31q38 0 55 21.5t17 56.5q0 29 -20.5 52t-51 46t-66 47t-66 55t-51 70.5t-20.5 92.5q0 81 47 131t128 58v103h64v-103q41 -3 73.5 -17t55 -41t33.5 -67.5t9 -97.5h-132q0 65 -17.5 94.5t-52.5 29.5q-23 0 -41 -16t-18 -48q0 -31 20.5 -55
t51.5 -47.5t67 -48t67 -54.5t51.5 -69t20.5 -91q0 -38 -10 -72t-32 -61.5t-58 -45.5t-88 -23v-104h-64v104q-47 4 -84.5 20t-63 45.5t-38 72t-10.5 99.5h137z" />
    <glyph glyph-name="cent" unicode="&#xa2;" horiz-adv-x="469" 
d="M210 764h62v-117q85 -7 118 -51.5t33 -126.5v-37h-132v55q0 34 -12 52t-39 18q-50 0 -50 -70v-214q0 -32 11.5 -52t40.5 -20t41 20t12 52v47h134v-41q0 -77 -38 -119t-119 -48v-124h-62v124q-90 8 -130 61t-40 141v131q0 93 39.5 143.5t130.5 58.5v117z" />
    <glyph glyph-name="Euro" unicode="&#x20ac;" horiz-adv-x="580" 
d="M401 560q0 48 -17.5 73.5t-53.5 25.5t-53.5 -25.5t-17.5 -73.5v-74h141v-72h-141v-65h141v-72h-141v-86q0 -45 16.5 -72.5t54.5 -27.5t54.5 27.5t16.5 72.5v29h144q0 -50 -10.5 -93t-35.5 -74.5t-66.5 -49.5t-102.5 -18q-63 0 -106.5 17.5t-70.5 49.5t-39.5 77t-12.5 101
v47h-61v72h61v65h-61v72h61v46q0 53 12.5 96t39.5 73.5t70.5 47t106.5 16.5q61 0 102.5 -17t66.5 -47.5t35.5 -72t10.5 -90.5h-144v22z" />
    <glyph glyph-name="sterling" unicode="&#xa3;" horiz-adv-x="521" 
d="M516 43q-21 -29 -55.5 -40.5t-84.5 -11.5q-32 0 -61 6t-57 12.5t-55.5 12.5t-56.5 6q-35 0 -58.5 -11.5t-35.5 -24.5l-25 111q10 9 21.5 17t24.5 16h-1q40 21 63.5 53t23.5 66q0 20 -6 41t-15 43h-93v62h66q-16 35 -28.5 74.5t-12.5 84.5q0 96 53 150.5t163 54.5
q62 0 101.5 -15.5t62 -47.5t29.5 -81t3 -115h-137q3 35 2 63.5t-7.5 48.5t-19.5 30.5t-35 10.5q-27 0 -43.5 -20.5t-16.5 -65.5q0 -46 18 -88t34 -84h127v-62h-111q1 -6 1.5 -12.5t0.5 -12.5q0 -30 -9.5 -55t-24.5 -45t-33 -35t-34 -25q25 -4 49.5 -10.5t48.5 -12.5
t47 -10.5t44 -4.5q33 0 59 7.5t49 30.5z" />
    <glyph glyph-name="yen" unicode="&#xa5;" horiz-adv-x="558" 
d="M375 342l-11 -30v-58h135v-82h-135v-172h-168v172h-137v82h137v58l-12 30h-125v82h93l-127 326h187l96 -299l90 299h135l-126 -326h92v-82h-124z" />
    <glyph glyph-name="currency" unicode="&#xa4;" horiz-adv-x="594" 
d="M40 379q0 44 13.5 83.5t38.5 71.5l-46 47l52 52l46 -47q32 24 71 37t82 13q44 0 83.5 -14t71.5 -38l49 49l52 -52l-49 -49q23 -32 36.5 -71t13.5 -82t-13 -82t-37 -71l49 -48l-52 -52l-49 48q-32 -25 -71.5 -38.5t-83.5 -13.5q-43 0 -82 13t-71 37l-46 -46l-52 52l46 46
q-25 32 -38.5 71.5t-13.5 83.5zM138 379q0 -35 12.5 -65t34.5 -53t50.5 -36t61.5 -13t61.5 13t50.5 36t34.5 53t12.5 65q0 34 -12.5 64.5t-34.5 53.5t-50.5 36t-61.5 13t-61.5 -13t-50.5 -36t-34.5 -53.5t-12.5 -64.5z" />
    <glyph glyph-name="ordfeminine" unicode="&#xaa;" horiz-adv-x="320" 
d="M192 667q0 38 -31 38q-15 0 -23.5 -10.5t-8.5 -27.5v-15l-88 1q-1 31 9 52t26.5 33.5t38.5 17.5t45 5q64 0 94.5 -25.5t30.5 -82.5v-216h-86l-1 32q-16 -22 -38 -30.5t-46 -8.5q-42 0 -63 21.5t-21 69.5q0 32 14 52t36.5 31.5t51.5 17t60 8.5v37zM192 584
q-36 -5 -51.5 -16t-15.5 -39q0 -24 8.5 -31.5t22.5 -7.5q11 0 21 5.5t15 13.5v75z" />
    <glyph glyph-name="ordmasculine" unicode="&#xba;" horiz-adv-x="334" 
d="M167 430q-68 0 -100 35t-32 91v80q0 57 32 91t100 34t100 -34t32 -91v-80q0 -56 -32 -91t-100 -35zM167 705q-37 0 -37 -43v-132q0 -20 9 -32t28 -12t28 12t9 32v132q0 43 -37 43z" />
    <glyph glyph-name="asciicircum" unicode="^" horiz-adv-x="620" 
d="M254 750h112l179 -367h-113l-122 260l-123 -260h-112z" />
    <glyph glyph-name="asciitilde" unicode="~" horiz-adv-x="618" 
d="M558 247q-20 -30 -50.5 -50.5t-80.5 -20.5q-32 0 -61.5 11t-58.5 24t-57.5 24t-57.5 11q-35 0 -58 -16.5t-36 -40.5l-38 97q9 12 21 24.5t28 23t36 17t46 6.5q30 0 60 -11t60 -24.5t58.5 -24.5t54.5 -11q33 0 56 15t40 42z" />
    <glyph glyph-name="asterisk" unicode="*" horiz-adv-x="413" 
d="M227 601l96 60l38 13l32 -96l-38 -12l-114 -7l87 -72l24 -32l-82 -60l-23 32l-41 105l-41 -104l-23 -32l-82 59l23 32l88 72l-114 7l-37 12l31 96l37 -12l96 -61l-29 110v39h101v-39z" />
    <glyph glyph-name="degree" unicode="&#xb0;" horiz-adv-x="393" 
d="M197 518q17 0 31.5 6.5t25.5 18t17.5 27t6.5 33.5q0 36 -23.5 60.5t-57.5 24.5q-35 0 -58 -24.5t-23 -60.5q0 -35 23 -60t58 -25zM40 603q0 33 12.5 61.5t33.5 49.5t49.5 33.5t61.5 12.5q32 0 60.5 -12.5t49.5 -33.5t33.5 -49.5t12.5 -61.5q0 -32 -12.5 -60.5t-33.5 -50
t-49.5 -34t-60.5 -12.5q-33 0 -61.5 12.5t-49.5 34t-33.5 50t-12.5 60.5z" />
    <glyph glyph-name="onesuperior" unicode="&#xb9;" horiz-adv-x="323" 
d="M106 629l-58 -42v102l77 61h91v-446h-110v325z" />
    <glyph glyph-name="twosuperior" unicode="&#xb2;" horiz-adv-x="379" 
d="M44 304v49q0 29 10 53t26 45.5t35.5 40.5t38.5 37q29 27 49.5 54t20.5 57v7q0 41 -36 41q-38 0 -38 -52v-16t2 -28h-105q-1 9 -1.5 18.5t-0.5 21.5q0 71 39 101t106 30q76 0 111.5 -30t35.5 -85v-9q0 -27 -9.5 -50t-25 -44t-34.5 -39.5t-38 -35.5q-23 -21 -45 -41
t-33 -39h182v-86h-290z" />
    <glyph glyph-name="threesuperior" unicode="&#xb3;" horiz-adv-x="374" 
d="M143 567h13q32 0 43 15t11 38v25q0 43 -36 43q-10 0 -18 -3.5t-13.5 -12.5t-8 -25.5t-0.5 -42.5h-102q-3 37 3.5 66t23.5 49t45.5 31t70.5 11q76 0 111.5 -30.5t35.5 -94.5q0 -69 -60 -97q32 -13 51 -37t19 -67q0 -73 -43 -106.5t-112 -33.5q-83 0 -117.5 40t-32.5 118
h107q-1 -25 2 -41t8.5 -25.5t13.5 -13t19 -3.5q20 0 30 13.5t10 36.5v27q0 25 -13.5 40t-45.5 15h-15v65z" />
    <glyph glyph-name="percent" unicode="%" horiz-adv-x="799" 
d="M50 628q0 60 32 96t110 36t110.5 -36t32.5 -96v-154q0 -63 -32.5 -100.5t-110.5 -37.5t-110 37.5t-32 100.5v154zM155 458q0 -23 8.5 -36.5t28.5 -13.5t28.5 13.5t8.5 36.5v181q0 50 -37 50t-37 -50v-181zM213 -24h-70l442 798h70zM464 280q0 60 32 96t110 36t110.5 -36
t32.5 -96v-154q0 -63 -32.5 -100.5t-110.5 -37.5t-110 37.5t-32 100.5v154zM569 110q0 -23 8.5 -36.5t28.5 -13.5t28.5 13.5t8.5 36.5v181q0 50 -37 50t-37 -50v-181z" />
    <glyph glyph-name="perthousand" unicode="&#x2030;" horiz-adv-x="1144" 
d="M50 628q0 60 32 96t110 36t110.5 -36t32.5 -96v-154q0 -63 -32.5 -100.5t-110.5 -37.5t-110 37.5t-32 100.5v154zM155 458q0 -23 8.5 -36.5t28.5 -13.5t28.5 13.5t8.5 36.5v181q0 50 -37 50t-37 -50v-181zM213 -24h-70l442 798h70zM462 280q0 60 32 96t110 36t110.5 -36
t32.5 -96v-154q0 -63 -32.5 -100.5t-110.5 -37.5t-110 37.5t-32 100.5v154zM567 110q0 -23 8.5 -36.5t28.5 -13.5t28.5 13.5t8.5 36.5v181q0 50 -37 50t-37 -50v-181zM809 280q0 60 32 96t110 36t110.5 -36t32.5 -96v-154q0 -63 -32.5 -100.5t-110.5 -37.5t-110 37.5
t-32 100.5v154zM914 110q0 -23 8.5 -36.5t28.5 -13.5t28.5 13.5t8.5 36.5v181q0 50 -37 50t-37 -50v-181z" />
    <glyph glyph-name="onequarter" unicode="&#xbc;" horiz-adv-x="772" 
d="M106 629l-58 -42v102l77 61h91v-446h-110v325zM178 -24h-88l441 798h88zM575 329l-88 -158v-14h88v172zM575 81h-183v100l150 265h137v-289h48v-76h-49v-81h-103v81z" />
    <glyph glyph-name="onehalf" unicode="&#xbd;" horiz-adv-x="806" 
d="M106 629l-58 -42v102l77 61h91v-446h-110v325zM178 -24h-88l441 798h88zM461 0v49q0 29 10 53t26 45.5t35.5 40.5t38.5 37q29 27 49.5 54t20.5 57v7q0 41 -36 41q-38 0 -38 -52v-16t2 -28h-105q-1 9 -1.5 18.5t-0.5 21.5q0 71 39 101t106 30q76 0 111.5 -30t35.5 -85v-9
q0 -27 -9.5 -50t-25 -44t-34.5 -39.5t-38 -35.5q-23 -21 -45 -41t-33 -39h182v-86h-290z" />
    <glyph glyph-name="threequarters" unicode="&#xbe;" horiz-adv-x="881" 
d="M167 567h13q32 0 43 15t11 38v25q0 43 -36 43q-10 0 -18 -3.5t-13.5 -12.5t-8 -25.5t-0.5 -42.5h-102q-3 37 3.5 66t23.5 49t45.5 31t70.5 11q76 0 111.5 -30.5t35.5 -94.5q0 -69 -60 -97q32 -13 51 -37t19 -67q0 -73 -43 -106.5t-112 -33.5q-83 0 -117.5 40t-32.5 118
h107q-1 -25 2 -41t8.5 -25.5t13.5 -13t19 -3.5q20 0 30 13.5t10 36.5v27q0 25 -13.5 40t-45.5 15h-15v65zM684 329l-88 -158v-14h88v172zM684 81h-183v100l150 265h137v-289h48v-76h-49v-81h-103v81zM287 -24h-88l441 798h88z" />
    <glyph glyph-name="mu" unicode="&#xb5;" horiz-adv-x="505" 
d="M50 529h151v-371q0 -32 8.5 -52t38.5 -20q17 0 33 11t26 25v407h148v-529h-143v42h-2q-23 -26 -51 -38.5t-59 -14.5v-147h-150v687z" />
    <glyph glyph-name="period" unicode="." horiz-adv-x="254" 
d="M50 148h154v-148h-154v148z" />
    <glyph glyph-name="comma" unicode="," horiz-adv-x="254" 
d="M204 149v-116q0 -29 -7 -47t-17 -38l-16 -32t-12 -23q-6 -11 -10 -19h-90l61 126h-63v149h154z" />
    <glyph glyph-name="colon" unicode=":" horiz-adv-x="264" 
d="M55 529h154v-149h-154v149zM55 149h154v-149h-154v149z" />
    <glyph glyph-name="semicolon" unicode=";" horiz-adv-x="264" 
d="M209 149v-116q0 -29 -7 -47t-17 -38l-16 -32t-12 -23q-6 -11 -10 -19h-90l61 126h-63v149h154zM55 529h154v-149h-154v149z" />
    <glyph glyph-name="ellipsis" unicode="&#x2026;" horiz-adv-x="982" 
d="M70 148h154v-148h-154v148zM414 148h154v-148h-154v148zM758 148h154v-148h-154v148z" />
    <glyph glyph-name="periodcentered" unicode="&#xb7;" horiz-adv-x="282" 
d="M53 295q0 18 7 34t19 28t28 19t34 7t34.5 -7t28.5 -19t19 -28t7 -34q0 -37 -26 -63t-63 -26q-18 0 -34 7t-28 19t-19 28.5t-7 34.5z" />
    <glyph glyph-name="bullet" unicode="&#x2022;" horiz-adv-x="526" 
d="M76 375q0 39 14.5 73t40 59.5t59.5 40t73 14.5t73 -14.5t59.5 -40t40.5 -59.5t15 -73t-15 -73t-40.5 -59.5t-59.5 -40.5t-73 -15t-73 15t-59.5 40.5t-40 59.5t-14.5 73z" />
    <glyph glyph-name="at" unicode="@" horiz-adv-x="818" 
d="M571 115q-46 0 -70.5 15t-38.5 38q-19 -20 -47 -35t-67 -15q-65 0 -98 39.5t-19 116.5l20 108q5 30 16.5 58.5t30.5 50t46.5 34.5t65.5 13q33 0 55.5 -10.5t36.5 -27.5l48 29h50l-51 -291q-4 -23 6.5 -36t33.5 -13q26 0 46.5 17t35 46t22 67.5t7.5 82.5q0 43 -13 87.5
t-44 81.5t-81.5 60.5t-126.5 23.5q-67 0 -124 -25.5t-98.5 -74t-65 -117.5t-23.5 -156q0 -148 72 -224.5t211 -76.5q36 0 66 5t54.5 12t42.5 15.5t30 14.5l25 -65q-42 -23 -97 -36.5t-125 -13.5q-93 0 -160.5 27.5t-111.5 76.5t-65 116.5t-21 147.5q0 96 28 177t79.5 140
t123.5 92t160 33q86 0 150 -25t107 -68.5t64 -102.5t21 -126q0 -73 -16.5 -126.5t-44.5 -89t-65.5 -53t-80.5 -17.5zM471 432q-2 11 -13.5 21t-30.5 10q-22 0 -37 -18t-21 -51l-24 -135q-6 -35 4 -50.5t31 -15.5q17 0 32.5 10t22.5 23z" />
    <glyph glyph-name="copyright" unicode="&#xa9;" horiz-adv-x="842" 
d="M90 375q0 69 26 129.5t71 105.5t105.5 71t129.5 26q68 0 128.5 -26t105.5 -71t71.5 -105.5t26.5 -129.5t-26.5 -129.5t-71.5 -105.5t-105.5 -71t-128.5 -26q-69 0 -129.5 26t-105.5 71t-71 105.5t-26 129.5zM161 375q0 -60 19 -110t53.5 -85.5t82.5 -55.5t106 -20
q57 0 105 20t82.5 55.5t53.5 85.5t19 110t-19 109.5t-53.5 85t-82.5 55.5t-105 20q-58 0 -106 -20t-82.5 -55.5t-53.5 -85t-19 -109.5zM559 327q0 -28 -5.5 -52.5t-20.5 -42.5t-41 -28t-66 -10q-73 0 -104 33.5t-31 86.5v133q0 55 31 88t104 33q39 0 64.5 -10t40.5 -28.5
t20 -44t4 -56.5h-89q4 39 -4.5 61t-34.5 22q-15 0 -27 -10.5t-12 -36.5v-167q0 -27 11.5 -37t29.5 -10q25 0 35 18.5t8 57.5h87z" />
    <glyph glyph-name="registered" unicode="&#xae;" horiz-adv-x="681" 
d="M90 515q0 52 19.5 97.5t53.5 79.5t79.5 53.5t97.5 19.5t98 -19.5t80 -53.5t53.5 -79.5t19.5 -97.5q0 -53 -19.5 -98.5t-53.5 -79.5t-80 -53.5t-98 -19.5t-97.5 19.5t-79.5 53.5t-53.5 79.5t-19.5 98.5zM151 515q0 -44 14 -80t38.5 -62t59.5 -40.5t77 -14.5t76.5 14.5
t59.5 40.5t39 62t14 80q0 43 -14 79t-39 62t-59.5 40.5t-76.5 14.5t-77 -14.5t-59.5 -40.5t-38.5 -62t-14 -79zM447 393h-68l-34 100h-31v-100h-65v251h115q40 0 60 -19.5t20 -55.5q0 -45 -37 -65zM314 605v-75h26q23 0 30 12t7 29q0 16 -7.5 25t-30.5 9h-25z" />
    <glyph glyph-name="trademark" unicode="&#x2122;" horiz-adv-x="748" 
d="M134 702h-74v47h218v-47h-73v-224h-71v224zM575 654h-1l-66 -176h-45l-65 176h-2v-176h-65v271h92l64 -176l65 176h87v-271h-64v176z" />
    <glyph glyph-name="grave" unicode="`" horiz-adv-x="254" 
d="M122 737l92 -152h-99l-140 152h147z" />
    <glyph glyph-name="dieresis" unicode="&#xa8;" horiz-adv-x="254" 
d="M-32 709h123v-122h-123v122zM163 709h123v-122h-123v122z" />
    <glyph glyph-name="macron" unicode="&#xaf;" horiz-adv-x="254" 
d="M-31 692h315v-83h-315v83z" />
    <glyph glyph-name="acute" unicode="&#xb4;" horiz-adv-x="254" 
d="M139 585h-99l92 152h145z" />
    <glyph glyph-name="circumflex" unicode="&#x2c6;" horiz-adv-x="254" 
d="M195 737l109 -152h-105l-73 88l-71 -88h-105l109 152h136z" />
    <glyph glyph-name="caron" unicode="&#x2c7;" horiz-adv-x="273" 
d="M71 585l-110 152h106l71 -90l70 90h107l-111 -152h-133z" />
    <glyph glyph-name="breve" unicode="&#x2d8;" horiz-adv-x="254" 
d="M303 737q-4 -81 -53 -120t-124 -39q-77 0 -123.5 36.5t-51.5 122.5h69q2 -21 11.5 -36.5t23.5 -25.5t31.5 -14.5t35.5 -4.5q43 0 72 16.5t40 64.5h69z" />
    <glyph glyph-name="dotaccent" unicode="&#x2d9;" horiz-adv-x="254" 
d="M65 719h126v-128h-126v128z" />
    <glyph glyph-name="ring" unicode="&#x2da;" horiz-adv-x="254" 
d="M15 682q0 23 9 43.5t24 36t35.5 24.5t43.5 9q24 0 44.5 -9t35.5 -24.5t24 -36t9 -43.5t-9 -43.5t-24 -35.5t-35.5 -24t-44.5 -9q-23 0 -43.5 9t-35.5 24t-24 35.5t-9 43.5zM70 682q0 -25 17 -42.5t40 -17.5q24 0 41 17.5t17 42.5q0 26 -17 43.5t-41 17.5q-23 0 -40 -17.5
t-17 -43.5z" />
    <glyph glyph-name="tilde" unicode="&#x2dc;" horiz-adv-x="254" 
d="M-59 601q21 51 51.5 78t72.5 27q20 0 38.5 -6.5t36 -14.5t32.5 -14.5t29 -6.5q16 0 30.5 9.5t26.5 36.5l64 -20q-17 -48 -46 -78.5t-79 -30.5q-20 0 -38 6.5t-35.5 14.5t-34 14.5t-32.5 6.5q-33 0 -52 -42z" />
    <glyph glyph-name="hungarumlaut" unicode="&#x2dd;" horiz-adv-x="254" 
d="M30 737h145l-154 -152h-88zM247 737h144l-153 -152h-89z" />
    <glyph glyph-name="ogonek" unicode="&#x2db;" horiz-adv-x="254" 
d="M226 -210q-17 -11 -42.5 -19t-54.5 -8q-20 0 -41.5 4t-39.5 13.5t-29.5 26.5t-11.5 44q0 41 32 76t103 73h88v-2q-18 -10 -41.5 -25t-43.5 -33t-34 -39.5t-14 -45.5q0 -19 12 -30t32 -11t35 4.5t32 14.5z" />
    <glyph glyph-name="cedilla" unicode="&#xb8;" horiz-adv-x="254" 
d="M28 -167q22 -11 38.5 -15t36.5 -4q21 0 35 8.5t14 27.5q0 13 -7.5 20.5t-19.5 11t-26.5 3.5t-27.5 -1l-22 27l52 89h61l-42 -64l2 -2q22 0 42 -4t35 -14t24 -25.5t9 -37.5q0 -24 -9.5 -41t-26 -28t-38 -16t-45.5 -5q-29 0 -54 7t-48 19z" />
    <glyph glyph-name="paragraph" unicode="&#xb6;" horiz-adv-x="535" 
d="M204 382q-43 3 -76 17.5t-56 38.5t-35 56t-12 70q0 48 16 83t44.5 58t66.5 34t82 11h246v-860h-92v788h-92v-788h-92v492z" />
    <glyph glyph-name="Uhorn" unicode="&#x1af;" horiz-adv-x="571" 
d="M408 829l6 2t16.5 4t24 2.5t27.5 -3.5q32 -8 38.5 -31.5t0.5 -52.5h-55q1 5 1 10t-0.5 9.5t-3.5 8.5q-3 3 -9 4t-13 1t-13.5 -1t-8.5 -2l-1.5 7.5t-3.5 16.5t-4 17zM50 750v-539q0 -49 13.5 -90.5t42.5 -71.5t74.5 -47t109.5 -17q105 0 168 57t63 169v539h-136v-559
q0 -46 -20 -72.5t-62 -26.5q-41 0 -62 26.5t-21 72.5v559h-170z" />
    <glyph glyph-name="Ohorn" unicode="&#x1a0;" horiz-adv-x="579" 
d="M372 829l6 2t16.5 4t24 2.5t27.5 -3.5q16 -4 27 -15.5t15 -28t0 -37t-17 -42.5l-10 8l-12 8l-12 7l-10 5q2 8 3 16q1 6 0.5 12.5t-3.5 10.5q-3 3 -9 4t-13 1t-13.5 -1t-8.5 -2l-1.5 7.5t-3.5 16.5t-4 17zM40 223q0 -112 61 -175t189 -63q127 0 188 63t61 175v316
q0 107 -61 166.5t-188 59.5t-188.5 -60t-61.5 -166v-316zM367 194q0 -103 -77 -103q-78 0 -78 103v364q0 47 19.5 74t58.5 27q38 0 57.5 -27t19.5 -74v-364z" />
    <glyph glyph-name="Abreve" unicode="&#x102;" horiz-adv-x="526" 
d="M367 750l153 -750h-173l-26 133h-168l-26 -133h-121l153 750h208zM172 233h130l-64 336zM290.123 706.468q-2.36426 -47.8857 -31.3174 -70.9424t-73.2686 -23.0566q-45.498 0 -72.9746 21.5791q-27.4756 21.5781 -30.4297 72.4199h40.7705
q1.18164 -12.415 6.79492 -21.5781t13.8857 -15.0752t18.6133 -8.57227q10.3398 -2.66016 20.9756 -2.66016q25.4082 0 42.5439 9.75391q17.1357 9.75488 23.6348 38.1318h40.7715z" />
    <glyph glyph-name="Dcroat" unicode="&#x110;" horiz-adv-x="577" 
d="M67 0v345h-42v85h42v320h233q132 0 190.5 -60.5t58.5 -178.5v-271q0 -116 -58.5 -178t-190.5 -62h-233zM288 107q50 0 70.5 28t20.5 75v335q0 50 -20.5 76.5t-70.5 26.5h-53v-218h76v-85h-76v-238h53z" />
    <glyph glyph-name="dcroat" unicode="&#x111;" horiz-adv-x="492" 
d="M294 413q-9 13 -24 21t-32 8q-30 0 -40 -21.5t-10 -53.5v-208q0 -35 13 -54t41 -19q17 0 30.5 7t21.5 17v303zM35 339q0 105 41.5 153.5t115.5 48.5q32 0 57.5 -12.5t42.5 -29.5h2v251h148v-750h-49l-58 39q-27 -23 -62 -37t-84 -14q-42 0 -71.5 15t-48 41.5t-26.5 62
t-8 77.5v155zM238 711h253v-121h-253v121z" />
    <glyph glyph-name="abreve" unicode="&#x103;" horiz-adv-x="459" 
d="M223 450q-23 0 -36 -15.5t-13 -43.5v-32h-137v21q0 37 10.5 66.5t33 50.5t57.5 32.5t84 11.5q101 0 149 -42t48 -139v-360h-130l-4 51h-3q-26 -35 -62.5 -49t-74.5 -14q-67 0 -95.5 37t-28.5 107v8q0 49 20 81.5t54 53t79.5 31t96.5 15.5v70q0 28 -12.5 43.5t-35.5 15.5z
M271 246q-52 -5 -76 -23.5t-25 -65.5v-12q0 -32 10.5 -45.5t32.5 -13.5q17 0 34 9t24 23v128zM270.033 575.225q-2.36426 -47.8867 -31.3174 -70.9424q-28.9531 -23.0566 -73.2686 -23.0566q-45.498 0 -72.9746 21.5781q-27.4756 21.5791 -30.4297 72.4209h40.7705
q1.18164 -12.415 6.79492 -21.5781q5.61328 -9.16406 13.8857 -15.0752q8.27246 -5.91211 18.6133 -8.57227q10.3398 -2.66113 20.9756 -2.66113q25.4082 0 42.5439 9.75488t23.6348 38.1318h40.7715z" />
    <glyph glyph-name="uhorn" unicode="&#x1b0;" horiz-adv-x="500" 
d="M339 607l6 2t16.5 4t24 2.5t27.5 -3.5q32 -8 38.5 -31.5t0.5 -52.5h-55q1 5 1 10t-0.5 9.5t-3.5 8.5q-3 3 -9 4t-13 1t-13.5 -1t-8.5 -2l-1.5 7.5t-3.5 16.5t-4 17zM45 529v-372q0 -88 32.5 -128.5t101.5 -40.5q80 0 126 54h2v-42h143v529h-148v-408q-9 -13 -24 -23.5
t-35 -10.5t-33.5 13.5t-13.5 51.5v377h-151z" />
    <glyph glyph-name="ohorn" unicode="&#x1a1;" horiz-adv-x="482" 
d="M290 612l6 2t16.5 4t24 2.5t27.5 -3.5q16 -4 27 -15.5t15 -28t0 -37t-17 -42.5l-10 8l-11 8l-13 7l-10 5q2 8 3 16q1 6 0.5 12.5t-3.5 10.5q-3 3 -9 4t-13 1t-13.5 -1t-8.5 -2l-1.5 7.5t-3.5 16.5t-4 17zM241 -12q54 0 93 15t64 42t37 65t12 84v141q0 94 -49 150t-157 56
t-157 -56t-49 -150v-141q0 -46 12 -84t37 -65t64 -42t93 -15zM241 447q27 0 41 -18.5t14 -53.5v-220q0 -32 -12.5 -52.5t-42.5 -20.5t-42.5 20.5t-12.5 52.5v220q0 35 14 53.5t41 18.5z" />
    <glyph glyph-name="Adotbelow" unicode="&#x1ea0;" horiz-adv-x="524" 
d="M205 -132v80h85v-80h-85v0zM367 750l153 -750h-173l-26 133h-168l-26 -133h-121l153 750h208zM172 233h130l-64 336z" />
    <glyph glyph-name="adotbelow" unicode="&#x1ea1;" horiz-adv-x="460" 
d="M205 -132v80h85v-80h-85zM223 450q-23 0 -36 -15.5t-13 -43.5v-32h-137v21q0 37 10.5 66.5t33 50.5t57.5 32.5t84 11.5q101 0 149 -42t48 -139v-360h-130l-4 51h-3q-26 -35 -62.5 -49t-74.5 -14q-67 0 -95.5 37t-28.5 107v8q0 49 20 81.5t54 53t79.5 31t96.5 15.5v70
q0 28 -12.5 43.5t-35.5 15.5zM271 246q-52 -5 -76 -23.5t-25 -65.5v-12q0 -32 10.5 -45.5t32.5 -13.5q17 0 34 9t24 23v128z" />
    <glyph glyph-name="Ahookabove" unicode="&#x1ea2;" horiz-adv-x="524" 
d="M309 912v-44q0 -11 -3 -19.5t-7 -17.5q-4 -8 -7 -13.5t-5 -9.5q-3 -4 -4 -8h-40l21 49v11l-27 1l-8 51h80zM367 750l153 -750h-173l-26 133h-168l-26 -133h-121l153 750h208zM172 233h130l-64 336z" />
    <glyph glyph-name="ahookabove" unicode="&#x1ea3;" horiz-adv-x="460" 
d="M281 712v-44q0 -11 -3 -19.5t-7 -17.5q-4 -8 -7 -13.5t-5 -9.5q-3 -4 -4 -8h-40l21 49v11l-27 1l-8 51h80zM223 450q-23 0 -36 -15.5t-13 -43.5v-32h-137v21q0 37 10.5 66.5t33 50.5t57.5 32.5t84 11.5q101 0 149 -42t48 -139v-360h-130l-4 51h-3q-26 -35 -62.5 -49
t-74.5 -14q-67 0 -95.5 37t-28.5 107v8q0 49 20 81.5t54 53t79.5 31t96.5 15.5v70q0 28 -12.5 43.5t-35.5 15.5zM271 246q-52 -5 -76 -23.5t-25 -65.5v-12q0 -32 10.5 -45.5t32.5 -13.5q17 0 34 9t24 23v128z" />
    <glyph glyph-name="Acircumflexacute" unicode="&#x1ea4;" horiz-adv-x="524" 
d="M405 844h-63l58 96h92zM367 750l153 -750h-173l-26 133h-168l-26 -133h-121l153 750h208zM298 883l60 -83h-58l-40 49l-38 -49h-58l60 83h74zM172 233h130l-64 336z" />
    <glyph glyph-name="acircumflexacute" unicode="&#x1ea5;" horiz-adv-x="460" 
d="M375 657h-63l58 96h92zM223 450q-23 0 -36 -15.5t-13 -43.5v-32h-137v21q0 37 10.5 66.5t33 50.5t57.5 32.5t84 11.5q101 0 149 -42t48 -139v-360h-130l-4 51h-3q-26 -35 -62.5 -49t-74.5 -14q-67 0 -95.5 37t-28.5 107v8q0 49 20 81.5t54 53t79.5 31t96.5 15.5v70
q0 28 -12.5 43.5t-35.5 15.5zM271 246q-52 -5 -76 -23.5t-25 -65.5v-12q0 -32 10.5 -45.5t32.5 -13.5q17 0 34 9t24 23v128zM267 694l60 -83h-58l-40 49l-38 -49h-58l60 83h74z" />
    <glyph glyph-name="_16.001" horiz-adv-x="500" 
 />
    <glyph glyph-name="acircumflexgrave" unicode="&#x1ea7;" horiz-adv-x="458" 
d="M344 743l58 -97h-62l-90 97h94zM223 450q-23 0 -36 -15.5t-13 -43.5v-32h-137v21q0 37 10.5 66.5t33 50.5t57.5 32.5t84 11.5q101 0 149 -42t48 -139v-360h-130l-4 51h-3q-26 -35 -62.5 -49t-74.5 -14q-67 0 -95.5 37t-28.5 107v8q0 49 20 81.5t54 53t79.5 31t96.5 15.5
v70q0 28 -12.5 43.5t-35.5 15.5zM271 246q-52 -5 -76 -23.5t-25 -65.5v-12q0 -32 10.5 -45.5t32.5 -13.5q17 0 34 9t24 23v128zM267 694l60 -83h-58l-40 49l-38 -49h-58l60 83h74z" />
    <glyph glyph-name="Acircumflexhookabove" unicode="&#x1ea8;" horiz-adv-x="524" 
d="M408 959v-44q0 -11 -3 -19.5t-7 -17.5q-4 -8 -7 -13.5t-5 -9.5q-3 -4 -4 -8h-40l21 49v11l-27 1l-8 51h80zM367 750l153 -750h-173l-26 133h-168l-26 -133h-121l153 750h208zM298 883l60 -83h-58l-40 49l-38 -49h-58l60 83h74zM172 233h130l-64 336z" />
    <glyph glyph-name="acircumflexhookabove" unicode="&#x1ea9;" horiz-adv-x="460" 
d="M378 769v-44q0 -11 -3 -19.5t-7 -17.5q-4 -8 -7 -13.5t-5 -9.5q-3 -4 -4 -8h-40l21 49v11l-27 1l-8 51h80zM223 450q-23 0 -36 -15.5t-13 -43.5v-32h-137v21q0 37 10.5 66.5t33 50.5t57.5 32.5t84 11.5q101 0 149 -42t48 -139v-360h-130l-4 51h-3q-26 -35 -62.5 -49
t-74.5 -14q-67 0 -95.5 37t-28.5 107v8q0 49 20 81.5t54 53t79.5 31t96.5 15.5v70q0 28 -12.5 43.5t-35.5 15.5zM271 246q-52 -5 -76 -23.5t-25 -65.5v-12q0 -32 10.5 -45.5t32.5 -13.5q17 0 34 9t24 23v128zM267 694l60 -83h-58l-40 49l-38 -49h-58l60 83h74z" />
    <glyph glyph-name="Acircumflextilde" unicode="&#x1eaa;" horiz-adv-x="524" 
d="M186 918q13 30 31 46.5t43 16.5q12 0 23 -4t21.5 -9t20 -9t17.5 -4q10 0 18.5 5.5t15.5 22.5l39 -12q-11 -29 -28.5 -47t-46.5 -18q-12 0 -23 4t-21.5 8.5t-20.5 8.5t-19 4q-20 0 -32 -25zM367 750l153 -750h-173l-26 133h-168l-26 -133h-121l153 750h208zM298 883
l60 -83h-58l-40 49l-38 -49h-58l60 83h74zM172 233h130l-64 336z" />
    <glyph glyph-name="acircumflextilde" unicode="&#x1eab;" horiz-adv-x="460" 
d="M126 724q13 30 31 46.5t43 16.5q12 0 23 -4t21.5 -9t20 -9t17.5 -4q10 0 18.5 5.5t15.5 22.5l39 -12q-11 -29 -28.5 -47t-46.5 -18q-12 0 -23 4t-21.5 8.5t-20.5 8.5t-19 4q-20 0 -32 -25zM223 450q-23 0 -36 -15.5t-13 -43.5v-32h-137v21q0 37 10.5 66.5t33 50.5
t57.5 32.5t84 11.5q101 0 149 -42t48 -139v-360h-130l-4 51h-3q-26 -35 -62.5 -49t-74.5 -14q-67 0 -95.5 37t-28.5 107v8q0 49 20 81.5t54 53t79.5 31t96.5 15.5v70q0 28 -12.5 43.5t-35.5 15.5zM271 246q-52 -5 -76 -23.5t-25 -65.5v-12q0 -32 10.5 -45.5t32.5 -13.5
q17 0 34 9t24 23v128zM267 694l60 -83h-58l-40 49l-38 -49h-58l60 83h74z" />
    <glyph glyph-name="Acircumflexdotbelow" unicode="&#x1eac;" horiz-adv-x="524" 
d="M205 -132v80h85v-80h-85zM367 750l153 -750h-173l-26 133h-168l-26 -133h-121l153 750h208zM298 883l60 -83h-58l-40 49l-38 -49h-58l60 83h74zM172 233h130l-64 336z" />
    <glyph glyph-name="acircumflexdotbelow" unicode="&#x1ead;" horiz-adv-x="458" 
d="M205 -132v80h85v-80h-85zM223 450q-23 0 -36 -15.5t-13 -43.5v-32h-137v21q0 37 10.5 66.5t33 50.5t57.5 32.5t84 11.5q101 0 149 -42t48 -139v-360h-130l-4 51h-3q-26 -35 -62.5 -49t-74.5 -14q-67 0 -95.5 37t-28.5 107v8q0 49 20 81.5t54 53t79.5 31t96.5 15.5v70
q0 28 -12.5 43.5t-35.5 15.5zM271 246q-52 -5 -76 -23.5t-25 -65.5v-12q0 -32 10.5 -45.5t32.5 -13.5q17 0 34 9t24 23v128zM267 694l60 -83h-58l-40 49l-38 -49h-58l60 83h74z" />
    <glyph glyph-name="Acircumflexgrave" unicode="&#x1ea6;" horiz-adv-x="524" 
d="M371 928l58 -97h-62l-90 97h94zM367 750l153 -750h-173l-26 133h-168l-26 -133h-121l153 750h208zM298 883l60 -83h-58l-40 49l-38 -49h-58l60 83h74zM172 233h130l-64 336z" />
    <glyph glyph-name="Abreveacute" unicode="&#x1eae;" horiz-adv-x="524" 
d="M295 915h-63l58 96h92zM367 750l153 -750h-173l-26 133h-168l-26 -133h-121l153 750h208zM172 233h130l-64 336zM367 894q-2 -48 -31 -71t-74 -23t-72.5 21.5t-30.5 72.5h41q2 -26 20.5 -37t39.5 -11q26 0 43 9.5t23 38.5h41z" />
    <glyph glyph-name="abreveacute" unicode="&#x1eaf;" horiz-adv-x="460" 
d="M270 716h-63l58 96h92zM223 450q-23 0 -36 -15.5t-13 -43.5v-32h-137v21q0 37 10.5 66.5t33 50.5t57.5 32.5t84 11.5q101 0 149 -42t48 -139v-360h-130l-4 51h-3q-26 -35 -62.5 -49t-74.5 -14q-67 0 -95.5 37t-28.5 107v8q0 49 20 81.5t54 53t79.5 31t96.5 15.5v70
q0 28 -12.5 43.5t-35.5 15.5zM271 246q-52 -5 -76 -23.5t-25 -65.5v-12q0 -32 10.5 -45.5t32.5 -13.5q17 0 34 9t24 23v128zM333 672q-2 -48 -31 -71t-74 -23t-72.5 21.5t-30.5 72.5h41q2 -26 20.5 -37t39.5 -11q26 0 43 9.5t23 38.5h41z" />
    <glyph glyph-name="Abrevegrave" unicode="&#x1eb0;" horiz-adv-x="524" 
d="M249 1010l58 -97h-62l-90 97h94zM367 750l153 -750h-173l-26 133h-168l-26 -133h-121l153 750h208zM172 233h130l-64 336zM367 894q-2 -48 -31 -71t-74 -23t-72.5 21.5t-30.5 72.5h41q2 -26 20.5 -37t39.5 -11q26 0 43 9.5t23 38.5h41z" />
    <glyph glyph-name="abrevegrave" unicode="&#x1eb1;" horiz-adv-x="460" 
d="M205 802l58 -97h-62l-90 97h94zM223 450q-23 0 -36 -15.5t-13 -43.5v-32h-137v21q0 37 10.5 66.5t33 50.5t57.5 32.5t84 11.5q101 0 149 -42t48 -139v-360h-130l-4 51h-3q-26 -35 -62.5 -49t-74.5 -14q-67 0 -95.5 37t-28.5 107v8q0 49 20 81.5t54 53t79.5 31t96.5 15.5
v70q0 28 -12.5 43.5t-35.5 15.5zM271 246q-52 -5 -76 -23.5t-25 -65.5v-12q0 -32 10.5 -45.5t32.5 -13.5q17 0 34 9t24 23v128zM333 672q-2 -48 -31 -71t-74 -23t-72.5 21.5t-30.5 72.5h41q2 -26 20.5 -37t39.5 -11q26 0 43 9.5t23 38.5h41z" />
    <glyph glyph-name="Abrevehookabove" unicode="&#x1eb2;" horiz-adv-x="524" 
d="M316 1025v-44q0 -11 -3 -19.5t-7 -17.5q-4 -8 -7 -13.5t-5 -9.5q-3 -4 -4 -8h-40l21 49v11l-27 1l-8 51h80zM367 750l153 -750h-173l-26 133h-168l-26 -133h-121l153 750h208zM172 233h130l-64 336zM367 894q-2 -48 -31 -71t-74 -23t-72.5 21.5t-30.5 72.5h41
q2 -26 20.5 -37t39.5 -11q26 0 43 9.5t23 38.5h41z" />
    <glyph glyph-name="abrevehookabove" unicode="&#x1eb3;" horiz-adv-x="460" 
d="M281 808v-44q0 -11 -3 -19.5t-7 -17.5q-4 -8 -7 -13.5t-5 -9.5q-3 -4 -4 -8h-40l21 49v11l-27 1l-8 51h80zM223 450q-23 0 -36 -15.5t-13 -43.5v-32h-137v21q0 37 10.5 66.5t33 50.5t57.5 32.5t84 11.5q101 0 149 -42t48 -139v-360h-130l-4 51h-3q-26 -35 -62.5 -49
t-74.5 -14q-67 0 -95.5 37t-28.5 107v8q0 49 20 81.5t54 53t79.5 31t96.5 15.5v70q0 28 -12.5 43.5t-35.5 15.5zM271 246q-52 -5 -76 -23.5t-25 -65.5v-12q0 -32 10.5 -45.5t32.5 -13.5q17 0 34 9t24 23v128zM333 672q-2 -48 -31 -71t-74 -23t-72.5 21.5t-30.5 72.5h41
q2 -26 20.5 -37t39.5 -11q26 0 43 9.5t23 38.5h41z" />
    <glyph glyph-name="Abrevetilde" unicode="&#x1eb4;" horiz-adv-x="524" 
d="M186 918q13 30 31 46.5t43 16.5q12 0 23 -4t21.5 -9t20 -9t17.5 -4q10 0 18.5 5.5t15.5 22.5l39 -12q-11 -29 -28.5 -47t-46.5 -18q-12 0 -23 4t-21.5 8.5t-20.5 8.5t-19 4q-20 0 -32 -25zM367 750l153 -750h-173l-26 133h-168l-26 -133h-121l153 750h208zM172 233h130
l-64 336zM367 894q-2 -48 -31 -71t-74 -23t-72.5 21.5t-30.5 72.5h41q2 -26 20.5 -37t39.5 -11q26 0 43 9.5t23 38.5h41z" />
    <glyph glyph-name="abrevetilde" unicode="&#x1eb5;" horiz-adv-x="460" 
d="M126 724q13 30 31 46.5t43 16.5q12 0 23 -4t21.5 -9t20 -9t17.5 -4q10 0 18.5 5.5t15.5 22.5l39 -12q-11 -29 -28.5 -47t-46.5 -18q-12 0 -23 4t-21.5 8.5t-20.5 8.5t-19 4q-20 0 -32 -25zM223 450q-23 0 -36 -15.5t-13 -43.5v-32h-137v21q0 37 10.5 66.5t33 50.5
t57.5 32.5t84 11.5q101 0 149 -42t48 -139v-360h-130l-4 51h-3q-26 -35 -62.5 -49t-74.5 -14q-67 0 -95.5 37t-28.5 107v8q0 49 20 81.5t54 53t79.5 31t96.5 15.5v70q0 28 -12.5 43.5t-35.5 15.5zM271 246q-52 -5 -76 -23.5t-25 -65.5v-12q0 -32 10.5 -45.5t32.5 -13.5
q17 0 34 9t24 23v128zM333 672q-2 -48 -31 -71t-74 -23t-72.5 21.5t-30.5 72.5h41q2 -26 20.5 -37t39.5 -11q26 0 43 9.5t23 38.5h41z" />
    <glyph glyph-name="Abrevedotbelow" unicode="&#x1eb6;" horiz-adv-x="524" 
d="M205 -132v80h85v-80h-85zM367 750l153 -750h-173l-26 133h-168l-26 -133h-121l153 750h208zM172 233h130l-64 336zM367 894q-2 -48 -31 -71t-74 -23t-72.5 21.5t-30.5 72.5h41q2 -26 20.5 -37t39.5 -11q26 0 43 9.5t23 38.5h41z" />
    <glyph glyph-name="abrevedotbelow" unicode="&#x1eb7;" horiz-adv-x="460" 
d="M205 -132v80h85v-80h-85zM223 450q-23 0 -36 -15.5t-13 -43.5v-32h-137v21q0 37 10.5 66.5t33 50.5t57.5 32.5t84 11.5q101 0 149 -42t48 -139v-360h-130l-4 51h-3q-26 -35 -62.5 -49t-74.5 -14q-67 0 -95.5 37t-28.5 107v8q0 49 20 81.5t54 53t79.5 31t96.5 15.5v70
q0 28 -12.5 43.5t-35.5 15.5zM271 246q-52 -5 -76 -23.5t-25 -65.5v-12q0 -32 10.5 -45.5t32.5 -13.5q17 0 34 9t24 23v128zM333 672q-2 -48 -31 -71t-74 -23t-72.5 21.5t-30.5 72.5h41q2 -26 20.5 -37t39.5 -11q26 0 43 9.5t23 38.5h41z" />
    <glyph glyph-name="Edotbelow" unicode="&#x1eb8;" 
d="M251 -132v80h85v-80h-85zM446 106v-106h-391v750h382v-106h-212v-191h176v-106h-176v-241h221z" />
    <glyph glyph-name="edotbelow" unicode="&#x1eb9;" 
d="M205 -132v80h85v-80h-85zM432 180v-21q0 -76 -45.5 -123.5t-146.5 -47.5q-56 0 -95 14.5t-63.5 41.5t-35.5 66t-11 88v134q0 100 49.5 154.5t157.5 54.5q104 0 147.5 -51t43.5 -151v-109h-247v-75q0 -73 56 -73q57 0 57 73v25h133zM296 378q0 71 -55 71t-55 -71v-64h110
v64z" />
    <glyph glyph-name="Ehookabove" unicode="&#x1eba;" horiz-adv-x="475" 
d="M309 912v-44q0 -11 -3 -19.5t-7 -17.5q-4 -8 -7 -13.5t-5 -9.5q-3 -4 -4 -8h-40l21 49v11l-27 1l-8 51h80zM446 106v-106h-391v750h382v-106h-212v-191h176v-106h-176v-241h221z" />
    <glyph glyph-name="ehookabove" unicode="&#x1ebb;" 
d="M281 712v-44q0 -11 -3 -19.5t-7 -17.5q-4 -8 -7 -13.5t-5 -9.5q-3 -4 -4 -8h-40l21 49v11l-27 1l-8 51h80zM432 180v-21q0 -76 -45.5 -123.5t-146.5 -47.5q-56 0 -95 14.5t-63.5 41.5t-35.5 66t-11 88v134q0 100 49.5 154.5t157.5 54.5q104 0 147.5 -51t43.5 -151v-109
h-247v-75q0 -73 56 -73q57 0 57 73v25h133zM296 378q0 71 -55 71t-55 -71v-64h110v64z" />
    <glyph glyph-name="Etilde" unicode="&#x1ebc;" 
d="M146 814q13 30 31 46.5t43 16.5q12 0 23 -4t21.5 -9t20 -9t17.5 -4q10 0 18.5 5.5t15.5 22.5l39 -12q-11 -29 -28.5 -47t-46.5 -18q-12 0 -23 4t-21.5 8.5t-20.5 8.5t-19 4q-20 0 -32 -25zM446 106v-106h-391v750h382v-106h-212v-191h176v-106h-176v-241h221z" />
    <glyph glyph-name="etilde" unicode="&#x1ebd;" 
d="M126 616q13 30 31 46.5t43 16.5q12 0 23 -4t21.5 -9t20 -9t17.5 -4q10 0 18.5 5.5t15.5 22.5l39 -12q-11 -29 -28.5 -47t-46.5 -18q-12 0 -23 4t-21.5 8.5t-20.5 8.5t-19 4q-20 0 -32 -25zM432 180v-21q0 -76 -45.5 -123.5t-146.5 -47.5q-56 0 -95 14.5t-63.5 41.5
t-35.5 66t-11 88v134q0 100 49.5 154.5t157.5 54.5q104 0 147.5 -51t43.5 -151v-109h-247v-75q0 -73 56 -73q57 0 57 73v25h133zM296 378q0 71 -55 71t-55 -71v-64h110v64z" />
    <glyph glyph-name="Ecircumflexacute" unicode="&#x1ebe;" 
d="M405 844h-63l58 96h92zM447 106v-106h-392v750h385v-106h-215v-191h176v-106h-176v-241h222zM298 883l60 -83h-58l-40 49l-38 -49h-58l60 83h74z" />
    <glyph glyph-name="ecircumflexacute" unicode="&#x1ebf;" 
d="M375 657h-63l58 96h92zM432 180v-21q0 -76 -45.5 -123.5t-146.5 -47.5q-56 0 -95 14.5t-63.5 41.5t-35.5 66t-11 88v134q0 100 49.5 154.5t157.5 54.5q104 0 147.5 -51t43.5 -151v-109h-247v-75q0 -73 56 -73q57 0 57 73v25h133zM296 378q0 71 -55 71t-55 -71v-64h110v64
zM267 694l60 -83h-58l-40 49l-38 -49h-58l60 83h74z" />
    <glyph glyph-name="Ecircumflexgrave" unicode="&#x1ec0;" 
d="M371 928l58 -97h-62l-90 97h94zM447 106v-106h-392v750h385v-106h-215v-191h176v-106h-176v-241h222zM298 883l60 -83h-58l-40 49l-38 -49h-58l60 83h74z" />
    <glyph glyph-name="ecircumflexgrave" unicode="&#x1ec1;" 
d="M344 743l58 -97h-62l-90 97h94zM432 180v-21q0 -76 -45.5 -123.5t-146.5 -47.5q-56 0 -95 14.5t-63.5 41.5t-35.5 66t-11 88v134q0 100 49.5 154.5t157.5 54.5q104 0 147.5 -51t43.5 -151v-109h-247v-75q0 -73 56 -73q57 0 57 73v25h133zM296 378q0 71 -55 71t-55 -71
v-64h110v64zM267 694l60 -83h-58l-40 49l-38 -49h-58l60 83h74z" />
    <glyph glyph-name="Ecircumflexhookabove" unicode="&#x1ec2;" 
d="M408 959v-44q0 -11 -3 -19.5t-7 -17.5q-4 -8 -7 -13.5t-5 -9.5q-3 -4 -4 -8h-40l21 49v11l-27 1l-8 51h80zM447 106v-106h-392v750h385v-106h-215v-191h176v-106h-176v-241h222zM298 883l60 -83h-58l-40 49l-38 -49h-58l60 83h74z" />
    <glyph glyph-name="ecircumflexhookabove" unicode="&#x1ec3;" 
d="M378 769v-44q0 -11 -3 -19.5t-7 -17.5q-4 -8 -7 -13.5t-5 -9.5q-3 -4 -4 -8h-40l21 49v11l-27 1l-8 51h80zM432 180v-21q0 -76 -45.5 -123.5t-146.5 -47.5q-56 0 -95 14.5t-63.5 41.5t-35.5 66t-11 88v134q0 100 49.5 154.5t157.5 54.5q104 0 147.5 -51t43.5 -151v-109
h-247v-75q0 -73 56 -73q57 0 57 73v25h133zM296 378q0 71 -55 71t-55 -71v-64h110v64zM267 694l60 -83h-58l-40 49l-38 -49h-58l60 83h74z" />
    <glyph glyph-name="Ecircumflextilde" unicode="&#x1ec4;" 
d="M186 918q13 30 31 46.5t43 16.5q12 0 23 -4t21.5 -9t20 -9t17.5 -4q10 0 18.5 5.5t15.5 22.5l39 -12q-11 -29 -28.5 -47t-46.5 -18q-12 0 -23 4t-21.5 8.5t-20.5 8.5t-19 4q-20 0 -32 -25zM447 106v-106h-392v750h385v-106h-215v-191h176v-106h-176v-241h222zM298 883
l60 -83h-58l-40 49l-38 -49h-58l60 83h74z" />
    <glyph glyph-name="ecircumflextilde" unicode="&#x1ec5;" 
d="M126 724q13 30 31 46.5t43 16.5q12 0 23 -4t21.5 -9t20 -9t17.5 -4q10 0 18.5 5.5t15.5 22.5l39 -12q-11 -29 -28.5 -47t-46.5 -18q-12 0 -23 4t-21.5 8.5t-20.5 8.5t-19 4q-20 0 -32 -25zM432 180v-21q0 -76 -45.5 -123.5t-146.5 -47.5q-56 0 -95 14.5t-63.5 41.5
t-35.5 66t-11 88v134q0 100 49.5 154.5t157.5 54.5q104 0 147.5 -51t43.5 -151v-109h-247v-75q0 -73 56 -73q57 0 57 73v25h133zM296 378q0 71 -55 71t-55 -71v-64h110v64zM267 694l60 -83h-58l-40 49l-38 -49h-58l60 83h74z" />
    <glyph glyph-name="Ecircumflexdotbelow" unicode="&#x1ec6;" 
d="M251 -132v80h85v-80h-85zM447 106v-106h-392v750h385v-106h-215v-191h176v-106h-176v-241h222zM298 883l60 -83h-58l-40 49l-38 -49h-58l60 83h74z" />
    <glyph glyph-name="ecircumflexdotbelow" unicode="&#x1ec7;" 
d="M205 -132v80h85v-80h-85zM432 180v-21q0 -76 -45.5 -123.5t-146.5 -47.5q-56 0 -95 14.5t-63.5 41.5t-35.5 66t-11 88v134q0 100 49.5 154.5t157.5 54.5q104 0 147.5 -51t43.5 -151v-109h-247v-75q0 -73 56 -73q57 0 57 73v25h133zM296 378q0 71 -55 71t-55 -71v-64h110
v64zM267 694l60 -83h-58l-40 49l-38 -49h-58l60 83h74z" />
    <glyph glyph-name="Ihookabove" unicode="&#x1ec8;" horiz-adv-x="279" 
d="M178 912v-44q0 -11 -3 -19.5t-7 -17.5q-4 -8 -7 -13.5t-5 -9.5q-3 -4 -4 -8h-40l21 49v11l-27 1l-8 51h80zM55 750h170v-750h-170v750z" />
    <glyph glyph-name="ihookabove" unicode="&#x1ec9;" horiz-adv-x="250" 
d="M50 504h149v-504h-149v504zM174 712v-44q0 -11 -3 -19.5t-7 -17.5q-4 -8 -7 -13.5t-5 -9.5q-3 -4 -4 -8h-40l21 49v11l-27 1l-8 51h80z" />
    <glyph glyph-name="Idotbelow" unicode="&#x1eca;" horiz-adv-x="281" 
d="M152 -205q-30 0 -52 20.5t-22 50.5q0 29 22 50t52 21t52 -21t22 -50q0 -30 -22 -50.5t-52 -20.5zM55 750h170v-750h-170v750z" />
    <glyph glyph-name="idotbelow" unicode="&#x1ecb;" horiz-adv-x="248" 
d="M86 -132v80h85v-80h-85zM50 0h149v529h-149v-529zM80 619v80h85v-80h-85z" />
    <glyph glyph-name="_15" horiz-adv-x="500" 
 />
    <glyph glyph-name="Odotbelow" unicode="&#x1ecc;" horiz-adv-x="579" 
d="M251 -132v80h85v-80h-85zM40 539q0 106 61.5 166t188.5 60t188 -59.5t61 -166.5v-316q0 -112 -61 -175t-188 -63q-128 0 -189 63t-61 175v316zM367 558q0 47 -19.5 74t-57.5 27q-39 0 -58.5 -27t-19.5 -74v-364q0 -103 78 -103q77 0 77 103v364z" />
    <glyph glyph-name="odotbelow" unicode="&#x1ecd;" horiz-adv-x="480" 
d="M205 -132v80h85v-80h-85zM241 -12q-54 0 -93 15t-64 42t-37 65t-12 84v141q0 94 49 150t157 56t157 -56t49 -150v-141q0 -46 -12 -84t-37 -65t-64 -42t-93 -15zM241 447q-27 0 -41 -18.5t-14 -53.5v-220q0 -32 12.5 -52.5t42.5 -20.5t42.5 20.5t12.5 52.5v220
q0 35 -14 53.5t-41 18.5z" />
    <glyph glyph-name="Ohookabove" unicode="&#x1ece;" horiz-adv-x="581" 
d="M40 223q0 -112 61 -175t189 -63q127 0 188 63t61 175v316q0 107 -61 166.5t-188 59.5t-188.5 -60t-61.5 -166v-316zM367 194q0 -103 -77 -103q-78 0 -78 103v364q0 47 19.5 74t58.5 27q38 0 57.5 -27t19.5 -74v-364zM309 912v-44q0 -11 -3 -19.5t-7 -17.5q-4 -8 -7 -13.5
t-5 -9.5q-3 -4 -4 -8h-40l21 49v11l-27 1l-8 51h80z" />
    <glyph glyph-name="ohookabove" unicode="&#x1ecf;" horiz-adv-x="482" 
d="M281 712v-44q0 -11 -3 -19.5t-7 -17.5q-4 -8 -7 -13.5t-5 -9.5q-3 -4 -4 -8h-40l21 49v11l-27 1l-8 51h80zM241 -12q-54 0 -93 15t-64 42t-37 65t-12 84v141q0 94 49 150t157 56t157 -56t49 -150v-141q0 -46 -12 -84t-37 -65t-64 -42t-93 -15zM241 447q-27 0 -41 -18.5
t-14 -53.5v-220q0 -32 12.5 -52.5t42.5 -20.5t42.5 20.5t12.5 52.5v220q0 35 -14 53.5t-41 18.5z" />
    <glyph glyph-name="Ocircumflexacute" unicode="&#x1ed0;" horiz-adv-x="579" 
d="M446 844h-63l58 96h92zM40 539q0 106 61.5 166t188.5 60t188 -59.5t61 -166.5v-316q0 -112 -61 -175t-188 -63q-128 0 -189 63t-61 175v316zM367 558q0 47 -19.5 74t-57.5 27q-39 0 -58.5 -27t-19.5 -74v-364q0 -103 78 -103q77 0 77 103v364zM329 883l60 -83h-58l-40 49
l-38 -49h-58l60 83h74z" />
    <glyph glyph-name="ocircumflexacute" unicode="&#x1ed1;" horiz-adv-x="482" 
d="M375 657h-63l58 96h92zM241 -12q-54 0 -93 15t-64 42t-37 65t-12 84v141q0 94 49 150t157 56t157 -56t49 -150v-141q0 -46 -12 -84t-37 -65t-64 -42t-93 -15zM241 447q-27 0 -41 -18.5t-14 -53.5v-220q0 -32 12.5 -52.5t42.5 -20.5t42.5 20.5t12.5 52.5v220
q0 35 -14 53.5t-41 18.5zM277 694l60 -83h-58l-40 49l-38 -49h-58l60 83h74z" />
    <glyph glyph-name="Ocircumflexgrave" unicode="&#x1ed2;" horiz-adv-x="579" 
d="M404 928l58 -97h-62l-90 97h94zM40 539q0 106 61.5 166t188.5 60t188 -59.5t61 -166.5v-316q0 -112 -61 -175t-188 -63q-128 0 -189 63t-61 175v316zM367 558q0 47 -19.5 74t-57.5 27q-39 0 -58.5 -27t-19.5 -74v-364q0 -103 78 -103q77 0 77 103v364zM329 883l60 -83
h-58l-40 49l-38 -49h-58l60 83h74z" />
    <glyph glyph-name="ocircumflexgrave" unicode="&#x1ed3;" horiz-adv-x="482" 
d="M344 743l58 -97h-62l-90 97h94zM241 -12q-54 0 -93 15t-64 42t-37 65t-12 84v141q0 94 49 150t157 56t157 -56t49 -150v-141q0 -46 -12 -84t-37 -65t-64 -42t-93 -15zM241 447q-27 0 -41 -18.5t-14 -53.5v-220q0 -32 12.5 -52.5t42.5 -20.5t42.5 20.5t12.5 52.5v220
q0 35 -14 53.5t-41 18.5zM277 694l60 -83h-58l-40 49l-38 -49h-58l60 83h74z" />
    <glyph glyph-name="Ocircumflexhookabove" unicode="&#x1ed4;" horiz-adv-x="579" 
d="M441 959v-44q0 -11 -3 -19.5t-7 -17.5q-4 -8 -7 -13.5t-5 -9.5q-3 -4 -4 -8h-40l21 49v11l-27 1l-8 51h80zM40 539q0 106 61.5 166t188.5 60t188 -59.5t61 -166.5v-316q0 -112 -61 -175t-188 -63q-128 0 -189 63t-61 175v316zM367 558q0 47 -19.5 74t-57.5 27
q-39 0 -58.5 -27t-19.5 -74v-364q0 -103 78 -103q77 0 77 103v364zM329 883l60 -83h-58l-40 49l-38 -49h-58l60 83h74z" />
    <glyph glyph-name="ocircumflexhookabove" unicode="&#x1ed5;" horiz-adv-x="482" 
d="M378 769v-44q0 -11 -3 -19.5t-7 -17.5q-4 -8 -7 -13.5t-5 -9.5q-3 -4 -4 -8h-40l21 49v11l-27 1l-8 51h80zM241 -12q-54 0 -93 15t-64 42t-37 65t-12 84v141q0 94 49 150t157 56t157 -56t49 -150v-141q0 -46 -12 -84t-37 -65t-64 -42t-93 -15zM241 447q-27 0 -41 -18.5
t-14 -53.5v-220q0 -32 12.5 -52.5t42.5 -20.5t42.5 20.5t12.5 52.5v220q0 35 -14 53.5t-41 18.5zM277 694l60 -83h-58l-40 49l-38 -49h-58l60 83h74z" />
    <glyph glyph-name="Ocircumflextilde" unicode="&#x1ed6;" horiz-adv-x="579" 
d="M186 918q13 30 31 46.5t43 16.5q12 0 23 -4t21.5 -9t20 -9t17.5 -4q10 0 18.5 5.5t15.5 22.5l39 -12q-11 -29 -28.5 -47t-46.5 -18q-12 0 -23 4t-21.5 8.5t-20.5 8.5t-19 4q-20 0 -32 -25zM40 539q0 106 61.5 166t188.5 60t188 -59.5t61 -166.5v-316q0 -112 -61 -175
t-188 -63q-128 0 -189 63t-61 175v316zM367 558q0 47 -19.5 74t-57.5 27q-39 0 -58.5 -27t-19.5 -74v-364q0 -103 78 -103q77 0 77 103v364zM329 883l60 -83h-58l-40 49l-38 -49h-58l60 83h74z" />
    <glyph glyph-name="ocircumflextilde" unicode="&#x1ed7;" horiz-adv-x="482" 
d="M126 724q13 30 31 46.5t43 16.5q12 0 23 -4t21.5 -9t20 -9t17.5 -4q10 0 18.5 5.5t15.5 22.5l39 -12q-11 -29 -28.5 -47t-46.5 -18q-12 0 -23 4t-21.5 8.5t-20.5 8.5t-19 4q-20 0 -32 -25zM241 -12q-54 0 -93 15t-64 42t-37 65t-12 84v141q0 94 49 150t157 56t157 -56
t49 -150v-141q0 -46 -12 -84t-37 -65t-64 -42t-93 -15zM241 447q-27 0 -41 -18.5t-14 -53.5v-220q0 -32 12.5 -52.5t42.5 -20.5t42.5 20.5t12.5 52.5v220q0 35 -14 53.5t-41 18.5zM277 694l60 -83h-58l-40 49l-38 -49h-58l60 83h74z" />
    <glyph glyph-name="Ocircumflexdotbelow" unicode="&#x1ed8;" horiz-adv-x="579" 
d="M251 -132v80h85v-80h-85zM40 539q0 106 61.5 166t188.5 60t188 -59.5t61 -166.5v-316q0 -112 -61 -175t-188 -63q-128 0 -189 63t-61 175v316zM367 558q0 47 -19.5 74t-57.5 27q-39 0 -58.5 -27t-19.5 -74v-364q0 -103 78 -103q77 0 77 103v364zM329 883l60 -83h-58
l-40 49l-38 -49h-58l60 83h74z" />
    <glyph glyph-name="ocircumflexdotbelow" unicode="&#x1ed9;" horiz-adv-x="482" 
d="M205 -132v80h85v-80h-85zM241 -12q-54 0 -93 15t-64 42t-37 65t-12 84v141q0 94 49 150t157 56t157 -56t49 -150v-141q0 -46 -12 -84t-37 -65t-64 -42t-93 -15zM241 447q-27 0 -41 -18.5t-14 -53.5v-220q0 -32 12.5 -52.5t42.5 -20.5t42.5 20.5t12.5 52.5v220
q0 35 -14 53.5t-41 18.5zM277 694l60 -83h-58l-40 49l-38 -49h-58l60 83h74z" />
    <glyph glyph-name="Ohornacute" unicode="&#x1eda;" horiz-adv-x="579" 
d="M304 844h-63l58 96h92zM372 829l6 2t16.5 4t24 2.5t27.5 -3.5q16 -4 27 -15.5t15 -28t0 -37t-17 -42.5l-10 8l-12 8l-12 7l-10 5q2 8 3 16q1 6 0.5 12.5t-3.5 10.5q-3 3 -9 4t-13 1t-13.5 -1t-8.5 -2l-1.5 7.5t-3.5 16.5t-4 17zM40 539q0 106 61.5 166t188.5 60
t188 -59.5t61 -166.5v-316q0 -112 -61 -175t-188 -63q-128 0 -189 63t-61 175v316zM367 558q0 47 -19.5 74t-57.5 27q-39 0 -58.5 -27t-19.5 -74v-364q0 -103 78 -103q77 0 77 103v364z" />
    <glyph glyph-name="ohornacute" unicode="&#x1edb;" horiz-adv-x="482" 
d="M290 612l6 2t16.5 4t24 2.5t27.5 -3.5q16 -4 27 -15.5t15 -28t0 -37t-17 -42.5l-10 8l-11 8l-13 7l-10 5q2 8 3 16q1 6 0.5 12.5t-3.5 10.5q-3 3 -9 4t-13 1t-13.5 -1t-8.5 -2l-1.5 7.5t-3.5 16.5t-4 17zM256 657h-63l58 96h92zM241 -12q-54 0 -93 15t-64 42t-37 65
t-12 84v141q0 94 49 150t157 56t157 -56t49 -150v-141q0 -46 -12 -84t-37 -65t-64 -42t-93 -15zM241 447q-27 0 -41 -18.5t-14 -53.5v-220q0 -32 12.5 -52.5t42.5 -20.5t42.5 20.5t12.5 52.5v220q0 35 -14 53.5t-41 18.5z" />
    <glyph glyph-name="Ohorngrave" unicode="&#x1edc;" horiz-adv-x="579" 
d="M372 829l6 2t16.5 4t24 2.5t27.5 -3.5q16 -4 27 -15.5t15 -28t0 -37t-17 -42.5l-10 8l-12 8l-12 7l-10 5q2 8 3 16q1 6 0.5 12.5t-3.5 10.5q-3 3 -9 4t-13 1t-13.5 -1t-8.5 -2l-1.5 7.5t-3.5 16.5t-4 17zM261 928l58 -97h-62l-90 97h94zM40 539q0 106 61.5 166t188.5 60
t188 -59.5t61 -166.5v-316q0 -112 -61 -175t-188 -63q-128 0 -189 63t-61 175v316zM367 558q0 47 -19.5 74t-57.5 27q-39 0 -58.5 -27t-19.5 -74v-364q0 -103 78 -103q77 0 77 103v364z" />
    <glyph glyph-name="ohorngrave" unicode="&#x1edd;" horiz-adv-x="482" 
d="M290 612l6 2t16.5 4t24 2.5t27.5 -3.5q16 -4 27 -15.5t15 -28t0 -37t-17 -42.5l-10 8l-11 8l-13 7l-10 5q2 8 3 16q1 6 0.5 12.5t-3.5 10.5q-3 3 -9 4t-13 1t-13.5 -1t-8.5 -2l-1.5 7.5t-3.5 16.5t-4 17zM213 707l58 -97h-62l-90 97h94zM241 -12q-54 0 -93 15t-64 42
t-37 65t-12 84v141q0 94 49 150t157 56t157 -56t49 -150v-141q0 -46 -12 -84t-37 -65t-64 -42t-93 -15zM241 447q-27 0 -41 -18.5t-14 -53.5v-220q0 -32 12.5 -52.5t42.5 -20.5t42.5 20.5t12.5 52.5v220q0 35 -14 53.5t-41 18.5z" />
    <glyph glyph-name="Ohornhookabove" unicode="&#x1ede;" horiz-adv-x="579" 
d="M372 829l6 2t16.5 4t24 2.5t27.5 -3.5q16 -4 27 -15.5t15 -28t0 -37t-17 -42.5l-10 8l-12 8l-12 7l-10 5q2 8 3 16q1 6 0.5 12.5t-3.5 10.5q-3 3 -9 4t-13 1t-13.5 -1t-8.5 -2l-1.5 7.5t-3.5 16.5t-4 17zM309 912v-44q0 -11 -3 -19.5t-7 -17.5q-4 -8 -7 -13.5t-5 -9.5
q-3 -4 -4 -8h-40l21 49v11l-27 1l-8 51h80zM40 539q0 106 61.5 166t188.5 60t188 -59.5t61 -166.5v-316q0 -112 -61 -175t-188 -63q-128 0 -189 63t-61 175v316zM367 558q0 47 -19.5 74t-57.5 27q-39 0 -58.5 -27t-19.5 -74v-364q0 -103 78 -103q77 0 77 103v364z" />
    <glyph glyph-name="ohornhookabove" unicode="&#x1edf;" horiz-adv-x="482" 
d="M290 612l6 2t16.5 4t24 2.5t27.5 -3.5q16 -4 27 -15.5t15 -28t0 -37t-17 -42.5l-10 8l-11 8l-13 7l-10 5q2 8 3 16q1 6 0.5 12.5t-3.5 10.5q-3 3 -9 4t-13 1t-13.5 -1t-8.5 -2l-1.5 7.5t-3.5 16.5t-4 17zM281 712v-44q0 -11 -3 -19.5t-7 -17.5q-4 -8 -7 -13.5t-5 -9.5
q-3 -4 -4 -8h-40l21 49v11l-27 1l-8 51h80zM241 -12q-54 0 -93 15t-64 42t-37 65t-12 84v141q0 94 49 150t157 56t157 -56t49 -150v-141q0 -46 -12 -84t-37 -65t-64 -42t-93 -15zM241 447q-27 0 -41 -18.5t-14 -53.5v-220q0 -32 12.5 -52.5t42.5 -20.5t42.5 20.5t12.5 52.5
v220q0 35 -14 53.5t-41 18.5z" />
    <glyph glyph-name="Ohorntilde" unicode="&#x1ee0;" horiz-adv-x="579" 
d="M372 829l6 2t16.5 4t24 2.5t27.5 -3.5q16 -4 27 -15.5t15 -28t0 -37t-17 -42.5l-10 8l-12 8l-12 7l-10 5q2 8 3 16q1 6 0.5 12.5t-3.5 10.5q-3 3 -9 4t-13 1t-13.5 -1t-8.5 -2l-1.5 7.5t-3.5 16.5t-4 17zM186 854q13 30 31 46.5t43 16.5q12 0 23 -4t21.5 -9t20 -9
t17.5 -4q10 0 18.5 5.5t15.5 22.5l39 -12q-11 -29 -28.5 -47t-46.5 -18q-12 0 -23 4t-21.5 8.5t-20.5 8.5t-19 4q-20 0 -32 -25zM40 539q0 106 61.5 166t188.5 60t188 -59.5t61 -166.5v-316q0 -112 -61 -175t-188 -63q-128 0 -189 63t-61 175v316zM367 558q0 47 -19.5 74
t-57.5 27q-39 0 -58.5 -27t-19.5 -74v-364q0 -103 78 -103q77 0 77 103v364z" />
    <glyph glyph-name="ohorntilde" unicode="&#x1ee1;" horiz-adv-x="482" 
d="M290 612l6 2t16.5 4t24 2.5t27.5 -3.5q16 -4 27 -15.5t15 -28t0 -37t-17 -42.5l-10 8l-11 8l-13 7l-10 5q2 8 3 16q1 6 0.5 12.5t-3.5 10.5q-3 3 -9 4t-13 1t-13.5 -1t-8.5 -2l-1.5 7.5t-3.5 16.5t-4 17zM126 640q13 30 31 46.5t43 16.5q12 0 23 -4t21.5 -9t20 -9
t17.5 -4q10 0 18.5 5.5t15.5 22.5l39 -12q-11 -29 -28.5 -47t-46.5 -18q-12 0 -23 4t-21.5 8.5t-20.5 8.5t-19 4q-20 0 -32 -25zM241 -12q-54 0 -93 15t-64 42t-37 65t-12 84v141q0 94 49 150t157 56t157 -56t49 -150v-141q0 -46 -12 -84t-37 -65t-64 -42t-93 -15zM241 447
q-27 0 -41 -18.5t-14 -53.5v-220q0 -32 12.5 -52.5t42.5 -20.5t42.5 20.5t12.5 52.5v220q0 35 -14 53.5t-41 18.5z" />
    <glyph glyph-name="Ohorndotbelow" unicode="&#x1ee2;" horiz-adv-x="579" 
d="M251 -132v80h85v-80h-85zM372 829l6 2t16.5 4t24 2.5t27.5 -3.5q16 -4 27 -15.5t15 -28t0 -37t-17 -42.5l-10 8l-12 8l-12 7l-10 5q2 8 3 16q1 6 0.5 12.5t-3.5 10.5q-3 3 -9 4t-13 1t-13.5 -1t-8.5 -2l-1.5 7.5t-3.5 16.5t-4 17zM40 223q0 -112 61 -175t189 -63
q127 0 188 63t61 175v316q0 107 -61 166.5t-188 59.5t-188.5 -60t-61.5 -166v-316zM367 194q0 -103 -77 -103q-78 0 -78 103v364q0 47 19.5 74t58.5 27q38 0 57.5 -27t19.5 -74v-364z" />
    <glyph glyph-name="ohorndotbelow" unicode="&#x1ee3;" horiz-adv-x="482" 
d="M205 -132v80h85v-80h-85zM290 612l6 2t16.5 4t24 2.5t27.5 -3.5q16 -4 27 -15.5t15 -28t0 -37t-17 -42.5l-10 8l-11 8l-13 7l-10 5q2 8 3 16q1 6 0.5 12.5t-3.5 10.5q-3 3 -9 4t-13 1t-13.5 -1t-8.5 -2l-1.5 7.5t-3.5 16.5t-4 17zM241 -12q54 0 93 15t64 42t37 65t12 84
v141q0 94 -49 150t-157 56t-157 -56t-49 -150v-141q0 -46 12 -84t37 -65t64 -42t93 -15zM241 447q27 0 41 -18.5t14 -53.5v-220q0 -32 -12.5 -52.5t-42.5 -20.5t-42.5 20.5t-12.5 52.5v220q0 35 14 53.5t41 18.5z" />
    <glyph glyph-name="Udotbelow" unicode="&#x1ee4;" horiz-adv-x="572" 
d="M251 -132v80h85v-80h-85zM220 750v-559q0 -46 21 -72.5t62 -26.5q42 0 62 26.5t20 72.5v559h136v-539q0 -112 -63 -169t-168 -57q-64 0 -109.5 17t-74.5 47t-42.5 71.5t-13.5 90.5v539h170z" />
    <glyph glyph-name="udotbelow" unicode="&#x1ee5;" horiz-adv-x="500" 
d="M205 -132v80h85v-80h-85zM196 529v-377q0 -38 13.5 -51.5t33.5 -13.5t35 10.5t24 23.5v408h148v-529h-143v42h-2q-46 -54 -126 -54q-69 0 -101.5 40.5t-32.5 128.5v372h151z" />
    <glyph glyph-name="Uhookabove" unicode="&#x1ee6;" horiz-adv-x="572" 
d="M346 912v-44q0 -11 -3 -19.5t-7 -17.5q-4 -8 -7 -13.5t-5 -9.5q-3 -4 -4 -8h-40l21 49v11l-27 1l-8 51h80zM220 750v-559q0 -46 21 -72.5t62 -26.5q42 0 62 26.5t20 72.5v559h136v-539q0 -112 -63 -169t-168 -57q-64 0 -109.5 17t-74.5 47t-42.5 71.5t-13.5 90.5v539h170
z" />
    <glyph glyph-name="uhookabove" unicode="&#x1ee7;" horiz-adv-x="500" 
d="M281 712v-44q0 -11 -3 -19.5t-7 -17.5q-4 -8 -7 -13.5t-5 -9.5q-3 -4 -4 -8h-40l21 49v11l-27 1l-8 51h80zM196 529v-377q0 -38 13.5 -51.5t33.5 -13.5t35 10.5t24 23.5v408h148v-529h-143v42h-2q-46 -54 -126 -54q-69 0 -101.5 40.5t-32.5 128.5v372h151z" />
    <glyph glyph-name="Uhornacute" unicode="&#x1ee8;" horiz-adv-x="573" 
d="M408 829l6 2t16.5 4t24 2.5t27.5 -3.5q32 -8 38.5 -31.5t0.5 -52.5h-55q1 5 1 10t-0.5 9.5t-3.5 8.5q-3 3 -9 4t-13 1t-13.5 -1t-8.5 -2l-1.5 7.5t-3.5 16.5t-4 17zM341 800h-63l58 96h92zM220 750v-559q0 -46 21 -72.5t62 -26.5q42 0 62 26.5t20 72.5v559h136v-539
q0 -112 -63 -169t-168 -57q-64 0 -109.5 17t-74.5 47t-42.5 71.5t-13.5 90.5v539h170z" />
    <glyph glyph-name="uhornacute" unicode="&#x1ee9;" horiz-adv-x="500" 
d="M339 607l6 2t16.5 4t24 2.5t27.5 -3.5q32 -8 38.5 -31.5t0.5 -52.5h-55q1 5 1 10t-0.5 9.5t-3.5 8.5q-3 3 -9 4t-13 1t-13.5 -1t-8.5 -2l-1.5 7.5t-3.5 16.5t-4 17zM287 657h-63l58 96h92zM196 529v-377q0 -38 13.5 -51.5t33.5 -13.5t35 10.5t24 23.5v408h148v-529h-143
v42h-2q-46 -54 -126 -54q-69 0 -101.5 40.5t-32.5 128.5v372h151z" />
    <glyph glyph-name="Uhorngrave" unicode="&#x1eea;" horiz-adv-x="572" 
d="M408 829l6 2t16.5 4t24 2.5t27.5 -3.5q32 -8 38.5 -31.5t0.5 -52.5h-55q1 5 1 10t-0.5 9.5t-3.5 8.5q-3 3 -9 4t-13 1t-13.5 -1t-8.5 -2l-1.5 7.5t-3.5 16.5t-4 17zM285 897l58 -97h-62l-90 97h94zM220 750v-559q0 -46 21 -72.5t62 -26.5q42 0 62 26.5t20 72.5v559h136
v-539q0 -112 -63 -169t-168 -57q-64 0 -109.5 17t-74.5 47t-42.5 71.5t-13.5 90.5v539h170z" />
    <glyph glyph-name="uhorngrave" unicode="&#x1eeb;" horiz-adv-x="500" 
d="M339 607l6 2t16.5 4t24 2.5t27.5 -3.5q32 -8 38.5 -31.5t0.5 -52.5h-55q1 5 1 10t-0.5 9.5t-3.5 8.5q-3 3 -9 4t-13 1t-13.5 -1t-8.5 -2l-1.5 7.5t-3.5 16.5t-4 17zM213 707l58 -97h-62l-90 97h94zM196 529v-377q0 -38 13.5 -51.5t33.5 -13.5t35 10.5t24 23.5v408h148
v-529h-143v42h-2q-46 -54 -126 -54q-69 0 -101.5 40.5t-32.5 128.5v372h151z" />
    <glyph glyph-name="Uhornhookabove" unicode="&#x1eec;" horiz-adv-x="573" 
d="M408 829l6 2t16.5 4t24 2.5t27.5 -3.5q32 -8 38.5 -31.5t0.5 -52.5h-55q1 5 1 10t-0.5 9.5t-3.5 8.5q-3 3 -9 4t-13 1t-13.5 -1t-8.5 -2l-1.5 7.5t-3.5 16.5t-4 17zM346 912v-44q0 -11 -3 -19.5t-7 -17.5q-4 -8 -7 -13.5t-5 -9.5q-3 -4 -4 -8h-40l21 49v11l-27 1l-8 51
h80zM220 750v-559q0 -46 21 -72.5t62 -26.5q42 0 62 26.5t20 72.5v559h136v-539q0 -112 -63 -169t-168 -57q-64 0 -109.5 17t-74.5 47t-42.5 71.5t-13.5 90.5v539h170z" />
    <glyph glyph-name="uhornhookabove" unicode="&#x1eed;" horiz-adv-x="500" 
d="M339 607l6 2t16.5 4t24 2.5t27.5 -3.5q32 -8 38.5 -31.5t0.5 -52.5h-55q1 5 1 10t-0.5 9.5t-3.5 8.5q-3 3 -9 4t-13 1t-13.5 -1t-8.5 -2l-1.5 7.5t-3.5 16.5t-4 17zM281 712v-44q0 -11 -3 -19.5t-7 -17.5q-4 -8 -7 -13.5t-5 -9.5q-3 -4 -4 -8h-40l21 49v11l-27 1l-8 51
h80zM196 529v-377q0 -38 13.5 -51.5t33.5 -13.5t35 10.5t24 23.5v408h148v-529h-143v42h-2q-46 -54 -126 -54q-69 0 -101.5 40.5t-32.5 128.5v372h151z" />
    <glyph glyph-name="Uhorntilde" unicode="&#x1eee;" horiz-adv-x="572" 
d="M408 829l6 2t16.5 4t24 2.5t27.5 -3.5q32 -8 38.5 -31.5t0.5 -52.5h-55q1 5 1 10t-0.5 9.5t-3.5 8.5q-3 3 -9 4t-13 1t-13.5 -1t-8.5 -2l-1.5 7.5t-3.5 16.5t-4 17zM186 854q13 30 31 46.5t43 16.5q12 0 23 -4t21.5 -9t20 -9t17.5 -4q10 0 18.5 5.5t15.5 22.5l39 -12
q-11 -29 -28.5 -47t-46.5 -18q-12 0 -23 4t-21.5 8.5t-20.5 8.5t-19 4q-20 0 -32 -25zM220 750v-559q0 -46 21 -72.5t62 -26.5q42 0 62 26.5t20 72.5v559h136v-539q0 -112 -63 -169t-168 -57q-64 0 -109.5 17t-74.5 47t-42.5 71.5t-13.5 90.5v539h170z" />
    <glyph glyph-name="uhorntilde" unicode="&#x1eef;" horiz-adv-x="500" 
d="M339 607l6 2t16.5 4t24 2.5t27.5 -3.5q32 -8 38.5 -31.5t0.5 -52.5h-55q1 5 1 10t-0.5 9.5t-3.5 8.5q-3 3 -9 4t-13 1t-13.5 -1t-8.5 -2l-1.5 7.5t-3.5 16.5t-4 17zM126 616q13 30 31 46.5t43 16.5q12 0 23 -4t21.5 -9t20 -9t17.5 -4q10 0 18.5 5.5t15.5 22.5l39 -12
q-11 -29 -28.5 -47t-46.5 -18q-12 0 -23 4t-21.5 8.5t-20.5 8.5t-19 4q-20 0 -32 -25zM196 529v-377q0 -38 13.5 -51.5t33.5 -13.5t35 10.5t24 23.5v408h148v-529h-143v42h-2q-46 -54 -126 -54q-69 0 -101.5 40.5t-32.5 128.5v372h151z" />
    <glyph glyph-name="Uhorndotbelow" unicode="&#x1ef0;" horiz-adv-x="572" 
d="M251 -132v80h85v-80h-85zM408 829l6 2t16.5 4t24 2.5t27.5 -3.5q32 -8 38.5 -31.5t0.5 -52.5h-55q1 5 1 10t-0.5 9.5t-3.5 8.5q-3 3 -9 4t-13 1t-13.5 -1t-8.5 -2l-1.5 7.5t-3.5 16.5t-4 17zM50 750v-539q0 -49 13.5 -90.5t42.5 -71.5t74.5 -47t109.5 -17q105 0 168 57
t63 169v539h-136v-559q0 -46 -20 -72.5t-62 -26.5q-41 0 -62 26.5t-21 72.5v559h-170z" />
    <glyph glyph-name="uhorndotbelow" unicode="&#x1ef1;" horiz-adv-x="499" 
d="M205 -132v80h85v-80h-85zM339 607l6 2t16.5 4t24 2.5t27.5 -3.5q32 -8 38.5 -31.5t0.5 -52.5h-55q1 5 1 10t-0.5 9.5t-3.5 8.5q-3 3 -9 4t-13 1t-13.5 -1t-8.5 -2l-1.5 7.5t-3.5 16.5t-4 17zM45 529v-372q0 -88 32.5 -128.5t101.5 -40.5q80 0 126 54h2v-42h143v529h-148
v-408q-9 -13 -24 -23.5t-35 -10.5t-33.5 13.5t-13.5 51.5v377h-151z" />
    <glyph glyph-name="Ygrave" unicode="&#x1ef2;" horiz-adv-x="495" 
d="M246 897l58 -97h-62l-90 97h94zM180 750l93 -318l88 318h128l-158 -471v-279h-172v279l-161 471h182z" />
    <glyph glyph-name="ygrave" unicode="&#x1ef3;" horiz-adv-x="436" 
d="M213 707l58 -97h-62l-90 97h94zM40 -56q10 -2 17 -2.5t17 -0.5q39 0 54 16t15 42q0 17 -3.5 33t-8.5 33l-129 464h157l81 -369h3l74 369h118l-135 -519q-21 -81 -67 -123.5t-134 -44.5q-15 0 -30 1t-29 3v98z" />
    <glyph glyph-name="Ydotbelow" unicode="&#x1ef4;" horiz-adv-x="493" 
d="M213 -132v80h85v-80h-85zM180 750l93 -318l88 318h128l-158 -471v-279h-172v279l-161 471h182z" />
    <glyph glyph-name="ydotbelow" unicode="&#x1ef5;" horiz-adv-x="436" 
d="M205 -235v80h85v-80h-85zM40 -56q10 -2 17 -2.5t17 -0.5q39 0 54 16t15 42q0 17 -3.5 33t-8.5 33l-129 464h157l81 -369h3l74 369h118l-135 -519q-21 -81 -67 -123.5t-134 -44.5q-15 0 -30 1t-29 3v98z" />
    <glyph glyph-name="Yhookabove" unicode="&#x1ef6;" horiz-adv-x="493" 
d="M309 912v-44q0 -11 -3 -19.5t-7 -17.5q-4 -8 -7 -13.5t-5 -9.5q-3 -4 -4 -8h-40l21 49v11l-27 1l-8 51h80zM180 750l93 -318l88 318h128l-158 -471v-279h-172v279l-161 471h182z" />
    <glyph glyph-name="yhookabove" unicode="&#x1ef7;" horiz-adv-x="436" 
d="M281 712v-44q0 -11 -3 -19.5t-7 -17.5q-4 -8 -7 -13.5t-5 -9.5q-3 -4 -4 -8h-40l21 49v11l-27 1l-8 51h80zM40 -56q10 -2 17 -2.5t17 -0.5q39 0 54 16t15 42q0 17 -3.5 33t-8.5 33l-129 464h157l81 -369h3l74 369h118l-135 -519q-21 -81 -67 -123.5t-134 -44.5
q-15 0 -30 1t-29 3v98z" />
    <glyph glyph-name="Ytilde" unicode="&#x1ef8;" horiz-adv-x="495" 
d="M186 853q13 30 31 46.5t43 16.5q12 0 23 -4t21.5 -9t20 -9t17.5 -4q10 0 18.5 5.5t15.5 22.5l39 -12q-11 -29 -28.5 -47t-46.5 -18q-12 0 -23 4t-21.5 8.5t-20.5 8.5t-19 4q-20 0 -32 -25zM180 750l93 -318l88 318h128l-158 -471v-279h-172v279l-161 471h182z" />
    <glyph glyph-name="ytilde" unicode="&#x1ef9;" horiz-adv-x="436" 
d="M126 616q13 30 31 46.5t43 16.5q12 0 23 -4t21.5 -9t20 -9t17.5 -4q10 0 18.5 5.5t15.5 22.5l39 -12q-11 -29 -28.5 -47t-46.5 -18q-12 0 -23 4t-21.5 8.5t-20.5 8.5t-19 4q-20 0 -32 -25zM40 -56q10 -2 17 -2.5t17 -0.5q39 0 54 16t15 42q0 17 -3.5 33t-8.5 33l-129 464
h157l81 -369h3l74 369h118l-135 -519q-21 -81 -67 -123.5t-134 -44.5q-15 0 -30 1t-29 3v98z" />
    <glyph glyph-name="dotbelowcomb" unicode="&#x323;" horiz-adv-x="254" 
d="M65 719h126v-128h-126v128z" />
    <glyph glyph-name="A" unicode="A" horiz-adv-x="526" 
d="M367 750l153 -750h-173l-26 133h-168l-26 -133h-121l153 750h208zM172 233h130l-64 336z" />
    <glyph glyph-name="DC2" horiz-adv-x="0" 
 />
    <glyph glyph-name="Utilde" unicode="&#x168;" horiz-adv-x="572" 
d="M186 854q13 30 31 46.5t43 16.5q12 0 23 -4t21.5 -9t20 -9t17.5 -4q10 0 18.5 5.5t15.5 22.5l39 -12q-11 -29 -28.5 -47t-46.5 -18q-12 0 -23 4t-21.5 8.5t-20.5 8.5t-19 4q-20 0 -32 -25zM220 750v-559q0 -46 21 -72.5t62 -26.5q42 0 62 26.5t20 72.5v559h136v-539
q0 -112 -63 -169t-168 -57q-64 0 -109.5 17t-74.5 47t-42.5 71.5t-13.5 90.5v539h170z" />
    <glyph glyph-name="utilde" unicode="&#x169;" horiz-adv-x="499" 
d="M126 616q13 30 31 46.5t43 16.5q12 0 23 -4t21.5 -9t20 -9t17.5 -4q10 0 18.5 5.5t15.5 22.5l39 -12q-11 -29 -28.5 -47t-46.5 -18q-12 0 -23 4t-21.5 8.5t-20.5 8.5t-19 4q-20 0 -32 -25zM196 529v-377q0 -38 13.5 -51.5t33.5 -13.5t35 10.5t24 23.5v408h148v-529h-143
v42h-2q-46 -54 -126 -54q-69 0 -101.5 40.5t-32.5 128.5v372h151z" />
    </font>
</defs>
</svg>
